<svg width="36" height="36" viewBox="0 0 36 36" fill="none" xmlns="http://www.w3.org/2000/svg">
<path d="M17.9624 0C22.8926 0 27.3388 2.02308 30.5838 5.29252C33.8108 8.5439 35.8188 13.0416 35.8188 18.009C35.8188 22.9764 33.8287 27.4561 30.5838 30.7255C27.3567 33.9769 22.8926 35.9819 17.9624 35.9819C13.0322 35.9819 8.58606 33.9769 5.34108 30.7255C2.11404 27.4561 0.124023 22.9764 0.124023 18.009C0.124023 13.0416 2.09611 8.5439 5.32316 5.29252C8.56813 2.02308 13.0143 0 17.9624 0ZM29.5977 6.26794C26.6037 3.28751 22.4982 1.40893 17.9445 1.40893C13.3908 1.40893 9.30318 3.28751 6.32713 6.26794C3.35107 9.26643 1.50448 13.4029 1.50448 17.991C1.50448 22.579 3.35107 26.7155 6.32713 29.7321C9.30318 32.7306 13.4087 34.573 17.9624 34.573C22.5161 34.573 26.6217 32.7306 29.6156 29.7321C32.5917 26.7336 34.4204 22.579 34.4204 17.991C34.4204 13.4029 32.5917 9.26643 29.6156 6.26794H29.5977Z" fill="white"/>
<path fill-rule="evenodd" clip-rule="evenodd" d="M19.3247 14.3242V12.8611C19.3247 12.1566 19.7908 11.976 20.1315 11.976H22.1753V8.83301H19.3606C16.2232 8.83301 15.524 11.1632 15.524 12.6805V14.3242H13.6953V17.9911H15.5419V27.1852H19.1992V17.9911H21.8884L22.0139 16.546L22.2291 14.3062H19.3247V14.3242Z" fill="white"/>
</svg>
