<svg width="37" height="36" viewBox="0 0 37 36" fill="none" xmlns="http://www.w3.org/2000/svg">
<path d="M18.585 0C23.5152 0 27.9793 2.02308 31.2063 5.27446C34.4334 8.52584 36.4413 13.0416 36.4413 18.009C36.4413 22.9764 34.4513 27.4561 31.2063 30.7255C27.9793 33.995 23.5152 36 18.585 36C13.6548 36 9.1907 33.995 5.96365 30.7255C2.7366 27.4742 0.746582 22.9584 0.746582 18.009C0.746582 13.0597 2.7366 8.52584 5.96365 5.27446C9.1907 2.02308 13.6548 0 18.585 0ZM30.2203 6.26794C27.2442 3.28751 23.1387 1.42699 18.585 1.42699C14.0313 1.42699 9.92574 3.28751 6.94968 6.26794C3.97363 9.2845 2.12705 13.421 2.12705 18.009C2.12705 22.5971 3.97363 26.7336 6.94968 29.7321C9.92574 32.7306 14.0313 34.5911 18.585 34.5911C23.1387 34.5911 27.2442 32.7306 30.2203 29.7321C33.2143 26.7336 35.0429 22.579 35.0429 18.009C35.0429 13.439 33.2143 9.2845 30.2203 6.26794Z" fill="white"/>
<path d="M10.6786 14.8298H14.1925V26.2096H10.6786V14.8298ZM12.4535 9.17603C13.5829 9.17603 14.4973 10.0972 14.4973 11.2172C14.4973 12.3371 13.5829 13.2764 12.4535 13.2764C11.324 13.2764 10.4097 12.3552 10.4097 11.2172C10.4097 10.0792 11.324 9.17603 12.4535 9.17603Z" fill="white"/>
<path d="M16.3978 14.8298H19.7683V16.3832H19.8221C20.2882 15.4801 21.4356 14.5408 23.1387 14.5408C26.6885 14.5408 27.3518 16.889 27.3518 19.9597V26.2096H23.838V20.6823C23.838 19.3637 23.82 17.6657 22.0093 17.6657C20.1986 17.6657 19.8938 19.1108 19.8938 20.5919V26.2277H16.3799V14.8478L16.3978 14.8298Z" fill="white"/>
</svg>
