<svg width="36" height="36" viewBox="0 0 36 36" fill="none" xmlns="http://www.w3.org/2000/svg">
<path d="M18.2071 9.59154C19.3366 9.66379 20.7171 9.48316 22.0975 9.68186C24.464 10.0251 26.2568 12.0662 26.2748 14.5047C26.2927 16.8349 26.2927 19.1831 26.2748 21.5133C26.2389 24.2047 24.0696 26.3903 21.3983 26.4084C19.1036 26.4265 16.7908 26.4265 14.496 26.4084C11.8068 26.3903 9.61961 24.1866 9.58376 21.4771C9.56583 19.165 9.56583 16.853 9.58376 14.5228C9.60169 11.8133 11.7889 9.62767 14.496 9.59154C15.6434 9.59154 16.7908 9.59154 18.2071 9.59154ZM17.9382 24.8911C19.0498 24.8911 20.1613 24.8911 21.2728 24.8911C23.2808 24.8911 24.7509 23.3918 24.7688 21.3507C24.7688 19.1289 24.7688 16.9071 24.7688 14.6673C24.7688 12.6081 23.2987 11.1088 21.2549 11.1088C19.0498 11.1088 16.8446 11.1088 14.6215 11.1088C12.5777 11.1088 11.1076 12.6081 11.1076 14.6673C11.1076 16.8891 11.1076 19.1109 11.1076 21.3507C11.1076 23.3918 12.5957 24.873 14.6036 24.8911C15.7152 24.8911 16.8267 24.8911 17.9382 24.8911Z" fill="white"/>
<path d="M22.4739 17.9729C22.4918 20.4837 20.466 22.561 17.956 22.5791C15.464 22.5971 13.4023 20.556 13.3844 18.0271C13.3665 15.5164 15.3923 13.4391 17.9023 13.421C20.3943 13.403 22.456 15.4441 22.4739 17.9729ZM20.9859 18.0091C20.9859 16.3473 19.6054 14.9383 17.956 14.9203C16.3067 14.9022 14.9083 16.3111 14.8903 17.9729C14.8903 19.6348 16.2708 21.0437 17.9202 21.0618C19.5696 21.0798 20.9859 19.6709 20.9859 18.0091Z" fill="white"/>
<path d="M22.4738 14.1616C22.0077 14.1436 21.7567 13.9449 21.7388 13.5114C21.7388 13.0778 21.9539 12.843 22.3842 12.825C22.8145 12.825 23.0475 13.0417 23.0654 13.4752C23.0654 13.9087 22.8324 14.1074 22.4738 14.1797V14.1616Z" fill="white"/>
<path d="M17.9204 0C22.8507 0 27.3147 2.02308 30.5418 5.27446C33.7688 8.52584 35.7768 13.0416 35.7768 18.009C35.7768 22.9764 33.7868 27.4561 30.5418 30.7255C27.3147 33.995 22.8507 36 17.9204 36C12.9902 36 8.52614 33.995 5.2991 30.7255C2.07205 27.4742 0.0820312 22.9584 0.0820312 18.009C0.0820312 13.0597 2.07205 8.52584 5.2991 5.27446C8.52614 2.02308 12.9902 0 17.9204 0ZM29.5557 6.26794C26.5797 3.28751 22.4742 1.42699 17.9204 1.42699C13.3667 1.42699 9.2612 3.28751 6.28515 6.26794C3.30909 9.2845 1.4625 13.421 1.4625 18.009C1.4625 22.5971 3.30909 26.7336 6.28515 29.7321C9.2612 32.7306 13.3667 34.5911 17.9204 34.5911C22.4742 34.5911 26.5797 32.7306 29.5557 29.7321C32.5497 26.7336 34.3784 22.579 34.3784 18.009C34.3784 13.439 32.5497 9.2845 29.5557 6.26794Z" fill="white"/>
</svg>
