<svg width="37" height="36" viewBox="0 0 37 36" fill="none" xmlns="http://www.w3.org/2000/svg">
<path d="M18.2739 0C23.2042 0 27.6682 2.02308 30.8953 5.27446C34.1223 8.52584 36.1303 13.0416 36.1303 18.009C36.1303 22.9764 34.1403 27.4561 30.8953 30.7255C27.6682 33.995 23.2042 36 18.2739 36C13.3437 36 8.87965 33.995 5.65261 30.7255C2.42556 27.4742 0.435547 22.9584 0.435547 18.009C0.435547 13.0597 2.42556 8.52584 5.65261 5.27446C8.87965 2.02308 13.3437 0 18.2739 0ZM29.9092 6.26794C26.9332 3.28751 22.8277 1.42699 18.2739 1.42699C13.7202 1.42699 9.6147 3.28751 6.63865 6.26794C3.66259 9.2845 1.81601 13.421 1.81601 18.009C1.81601 22.5971 3.66259 26.7336 6.63865 29.7321C9.6147 32.7306 13.7202 34.5911 18.2739 34.5911C22.8277 34.5911 26.9332 32.7306 29.9092 29.7321C32.9032 26.7336 34.7319 22.579 34.7319 18.009C34.7319 13.439 32.9032 9.2845 29.9092 6.26794Z" fill="white"/>
<path d="M15.2801 28.0702C15.0112 28.016 14.7422 27.9799 14.4733 27.9257C11.8738 27.3296 9.9196 25.1801 9.61482 22.5248C9.20247 18.8399 11.7483 16.1123 14.6885 15.5524C15.3518 15.4259 16.0151 15.4079 16.6964 15.5162C16.7502 15.5162 16.804 15.5343 16.8577 15.5524V19.2553C16.553 19.2192 16.284 19.165 16.0151 19.1469C14.6347 19.0747 13.3797 20.032 13.1108 21.3687C12.7522 23.2473 14.061 24.584 15.3877 24.8007C16.8577 25.0356 18.0769 24.2408 18.5788 22.9041C18.6685 22.6873 18.6506 22.4164 18.6685 22.1635C18.6864 21.4952 18.7043 20.8268 18.7043 20.1585C18.7043 16.1665 18.7043 12.1926 18.7043 8.20064C18.7043 8.11032 18.7043 8.03807 18.7043 7.92969H21.9672C21.9852 8.14645 22.0031 8.36321 22.0569 8.59803C22.4692 10.8559 23.8138 12.2649 26.0369 12.7526C26.3417 12.8248 26.6465 12.879 26.9692 12.9332V16.293C25.2122 16.2388 23.6166 15.733 22.1286 14.6853C22.1286 14.8118 22.1286 14.884 22.1286 14.9563C22.1286 17.2322 22.1286 19.4902 22.1286 21.7661C22.1286 24.7104 20.1027 27.2573 17.2522 27.9076C16.9474 27.9799 16.6605 28.016 16.3558 28.0702H15.298H15.2801Z" fill="white"/>
</svg>
