<svg width="37" height="36" viewBox="0 0 37 36" fill="none" xmlns="http://www.w3.org/2000/svg">
<path d="M18.6093 0C23.5395 0 28.0035 2.02308 31.2306 5.27446C34.4576 8.52584 36.4656 13.0416 36.4656 18.009C36.4656 22.9764 34.4576 27.4742 31.2306 30.7255C27.9856 33.9769 23.5395 36 18.6093 36C13.679 36 9.21496 33.9769 5.98792 30.7255C2.76087 27.4742 0.75293 22.9584 0.75293 18.009C0.75293 13.0597 2.74294 8.52584 5.98792 5.27446C9.21496 2.02308 13.679 0 18.6093 0ZM30.2446 6.26794C27.2685 3.28751 23.163 1.42699 18.6093 1.42699C14.0555 1.42699 9.95001 3.28751 6.97396 6.26794C3.97998 9.26643 2.15132 13.421 2.15132 18.009C2.15132 22.5971 3.9979 26.7336 6.97396 29.7321C9.95001 32.7306 14.0555 34.5911 18.6093 34.5911C23.163 34.5911 27.2685 32.7306 30.2446 29.7321C33.2206 26.7336 35.0672 22.579 35.0672 18.009C35.0672 13.439 33.2206 9.26643 30.2446 6.26794Z" fill="white"/>
<path d="M20.7427 15.6065C20.8861 15.444 21.0295 15.2814 21.1729 15.1188C21.5136 14.7214 21.8542 14.3421 22.1769 13.9447C22.6251 13.4209 23.0733 12.879 23.5215 12.3552C23.8442 11.9758 24.1848 11.5965 24.5075 11.2172C24.7765 10.892 25.0454 10.585 25.3143 10.2598C25.6191 9.91662 25.9059 9.57342 26.2107 9.23022C26.2466 9.19409 26.3183 9.17603 26.3721 9.17603C26.7485 9.17603 27.125 9.17603 27.5015 9.17603C27.5553 9.17603 27.6091 9.21215 27.6449 9.21215C27.6449 9.26634 27.627 9.33859 27.5912 9.37472C27.394 9.62761 27.1788 9.86243 26.9816 10.0973C26.7844 10.3321 26.5872 10.5669 26.3721 10.8017C26.0494 11.181 25.7087 11.5604 25.386 11.9397C25.153 12.2106 24.9199 12.4997 24.6868 12.7706C24.4538 13.0416 24.2207 13.3306 23.9697 13.6015C23.7366 13.8905 23.4856 14.1615 23.2526 14.4505C22.9837 14.7756 22.6968 15.1008 22.4279 15.4259C22.141 15.751 21.8542 16.0762 21.5853 16.4013C21.3881 16.6542 21.406 16.6542 21.6211 16.9793C21.89 17.3406 22.1231 17.7199 22.3741 18.0812C22.6072 18.4244 22.8402 18.7495 23.0733 19.0927C23.3064 19.4359 23.5394 19.7791 23.7725 20.1404C23.9697 20.4294 24.1848 20.7365 24.382 21.0255C24.5793 21.2964 24.7585 21.5855 24.9557 21.8564C25.1529 22.1454 25.3502 22.4344 25.5474 22.7234C25.6908 22.9221 25.8163 23.1389 25.9597 23.3376C26.1569 23.6266 26.3721 23.9337 26.5693 24.2227C26.7665 24.5117 26.9637 24.8188 27.1609 25.1078C27.3581 25.3968 27.5553 25.6858 27.7525 25.9568C27.8959 26.1555 28.0214 26.3361 28.1649 26.5348C28.2007 26.589 28.2186 26.6612 28.2007 26.7154C28.1828 26.7515 28.0931 26.7696 28.0394 26.7696C26.4976 26.7696 24.9378 26.7696 23.396 26.7696C23.2705 26.7696 23.1809 26.7154 23.1092 26.607C22.8761 26.2638 22.643 25.9387 22.41 25.5955C22.2128 25.3065 22.0155 25.0355 21.8363 24.7465C21.639 24.4575 21.4418 24.1685 21.2446 23.8795C20.9936 23.5182 20.7427 23.157 20.5096 22.7776C20.2765 22.4344 20.0435 22.0912 19.8104 21.7661C19.6132 21.4771 19.416 21.17 19.2188 20.881C19.0395 20.6281 18.8602 20.3572 18.6809 20.1043C18.6092 19.9959 18.5554 19.9959 18.4658 20.1043C18.1252 20.5017 17.7845 20.8991 17.4439 21.2964C16.9419 21.8745 16.4399 22.4706 15.9379 23.0486C15.4897 23.5905 15.0415 24.1143 14.5754 24.6562C14.0376 25.2884 13.4818 25.9026 12.9619 26.5348C12.8185 26.7154 12.6571 26.7877 12.424 26.7696C12.1193 26.7515 11.7966 26.7696 11.4918 26.7696C11.438 26.7696 11.3842 26.7335 11.3125 26.7154C11.3304 26.6612 11.3484 26.589 11.3842 26.5528C11.7786 26.0832 12.191 25.6316 12.5854 25.162C13.0336 24.6381 13.4818 24.0962 13.93 23.5724C14.2527 23.1931 14.5754 22.8318 14.8981 22.4525C15.1312 22.1815 15.3642 21.9106 15.5973 21.6216C15.8841 21.2964 16.171 20.9532 16.4578 20.6281C16.6909 20.3572 16.906 20.1043 17.1391 19.8333C17.3363 19.5985 17.5515 19.3456 17.7666 19.1108C17.8562 19.0024 17.8562 18.9121 17.7845 18.8037C17.6052 18.5328 17.408 18.2618 17.2288 17.9909C17.0315 17.7019 16.8343 17.3948 16.6192 17.1058C16.3861 16.7626 16.1351 16.4194 15.9021 16.0762C15.669 15.733 15.436 15.3717 15.2029 15.0285C14.9698 14.6853 14.7368 14.3421 14.5037 13.9989C14.3603 13.7821 14.1989 13.5473 14.0555 13.3306C13.9121 13.1138 13.7686 12.897 13.6252 12.6803C13.3742 12.319 13.1412 11.9578 12.8902 11.5965C12.693 11.3075 12.4957 11.0365 12.2985 10.7475C12.1551 10.5488 12.0117 10.3321 11.8862 10.1334C11.7248 9.89855 11.5635 9.6818 11.4021 9.42891C11.3663 9.37472 11.3484 9.30247 11.3484 9.23022C11.3484 9.21215 11.438 9.17603 11.4918 9.17603C12.8185 9.17603 14.1272 9.17603 15.4539 9.17603C15.6869 9.17603 15.92 9.17603 16.171 9.17603C16.2786 9.17603 16.3682 9.21215 16.4399 9.32053C16.6909 9.6818 16.924 10.025 17.175 10.3863C17.426 10.7475 17.659 11.1088 17.8921 11.4701C18.1252 11.8133 18.3582 12.1565 18.6092 12.4816C18.8423 12.8248 19.0753 13.1861 19.3084 13.5293C19.5415 13.8725 19.7745 14.1976 20.0076 14.5408C20.2048 14.8298 20.402 15.1369 20.6172 15.4259C20.653 15.4801 20.7068 15.5343 20.7785 15.6065H20.7427ZM13.4101 10.4043C13.4101 10.4043 13.4459 10.5308 13.4639 10.5669C13.6431 10.8198 13.8224 11.0907 14.0017 11.3436C14.2527 11.7049 14.5037 12.0481 14.7368 12.4093C14.9698 12.7525 15.2029 13.0777 15.4359 13.4209C15.669 13.7641 15.92 14.1073 16.1531 14.4685C16.3324 14.7395 16.5296 15.0104 16.7088 15.2814C16.9419 15.6246 17.1929 15.9678 17.426 16.311C17.6232 16.6 17.8204 16.889 18.0176 17.178C18.2148 17.467 18.412 17.738 18.6092 18.027C18.7885 18.298 18.9857 18.5689 19.165 18.8398C19.3622 19.1289 19.5594 19.4179 19.7566 19.7069C19.9538 19.9778 20.1331 20.2488 20.3303 20.5197C20.5634 20.8629 20.8144 21.2061 21.0474 21.5493C21.2805 21.8925 21.5136 22.2357 21.7466 22.5789C21.9976 22.9221 22.2307 23.2834 22.4817 23.6266C22.7327 23.9698 22.9657 24.313 23.1988 24.6743C23.396 24.9633 23.5932 25.2342 23.7725 25.5232C23.8442 25.6136 23.9159 25.6677 24.0414 25.6677C24.6689 25.6677 25.2964 25.6677 25.9059 25.6677C25.9597 25.6677 25.9956 25.6316 26.0494 25.6136C26.0314 25.5594 26.0314 25.5052 25.9956 25.451C25.9239 25.3426 25.8521 25.2523 25.7804 25.1439C25.637 24.9272 25.4936 24.7285 25.3502 24.5117C25.1171 24.1685 24.8661 23.8253 24.6151 23.464C24.382 23.1208 24.1311 22.7596 23.898 22.4164C23.6649 22.0732 23.4319 21.73 23.1809 21.4048C22.9837 21.1339 22.8044 20.8629 22.6072 20.592C22.3741 20.2488 22.1231 19.9056 21.8721 19.5443C21.6391 19.2011 21.406 18.8579 21.1729 18.5147C20.9399 18.1715 20.7068 17.8464 20.4737 17.5032C20.2407 17.16 19.9897 16.8168 19.7566 16.4736C19.5594 16.2026 19.3622 15.9136 19.165 15.6427C18.9319 15.2995 18.6989 14.9563 18.4479 14.6131C18.2148 14.2699 17.9638 13.9447 17.7307 13.6015C17.4977 13.2583 17.2467 12.897 17.0136 12.5538C16.8343 12.2829 16.6371 12.012 16.4399 11.7591C16.171 11.3617 15.8842 10.9462 15.6152 10.5488C15.5435 10.4585 15.4539 10.4043 15.3284 10.4043C14.7188 10.4043 14.0913 10.4043 13.4818 10.4043C13.428 10.4043 13.3922 10.4043 13.3204 10.4224L13.4101 10.4043Z" fill="white"/>
</svg>
