<svg width="37" height="36" viewBox="0 0 37 36" fill="none" xmlns="http://www.w3.org/2000/svg">
<path d="M18.2499 0C23.1801 0 27.6442 2.02308 30.8712 5.27446C34.0983 8.52584 36.1062 13.0416 36.1062 18.009C36.1062 22.9764 34.1162 27.4742 30.8712 30.7255C27.6442 33.9769 23.1801 36 18.2499 36C13.3197 36 8.85559 33.9769 5.62854 30.7255C2.40149 27.4742 0.393555 22.9584 0.393555 18.009C0.393555 13.0597 2.38356 8.52584 5.62854 5.27446C8.85559 2.02308 13.3197 0 18.2499 0ZM29.8852 6.26794C26.9091 3.28751 22.8036 1.42699 18.2499 1.42699C13.6962 1.42699 9.59064 3.28751 6.61459 6.26794C3.6206 9.26643 1.79194 13.421 1.79194 18.009C1.79194 22.5971 3.63853 26.7336 6.61459 29.7321C9.59064 32.7306 13.6962 34.5911 18.2499 34.5911C22.8036 34.5911 26.9091 32.7306 29.8852 29.7321C32.8792 26.7336 34.7078 22.579 34.7078 18.009C34.7078 13.439 32.8612 9.26643 29.8852 6.26794Z" fill="white"/>
<path fill-rule="evenodd" clip-rule="evenodd" d="M27.1779 14.1616C27.1779 14.1616 26.9986 12.843 26.4429 12.265C25.7437 11.5063 24.9727 11.4882 24.6142 11.4521C22.0684 11.2534 18.2318 11.2534 18.2318 11.2534C18.2318 11.2534 14.4131 11.2534 11.8674 11.4521C11.5088 11.5063 10.7379 11.5063 10.0387 12.265C9.50087 12.843 9.30365 14.1616 9.30365 14.1616C9.30365 14.1616 9.10645 15.715 9.10645 17.2504V18.7135C9.10645 20.267 9.30365 21.8023 9.30365 21.8023C9.30365 21.8023 9.48294 23.139 10.0387 23.717C10.7379 24.4757 11.6522 24.4576 12.0646 24.5299C13.5167 24.6744 18.2498 24.7286 18.2498 24.7286C18.2498 24.7286 22.0864 24.7286 24.6321 24.5299C24.9728 24.4757 25.7616 24.4757 26.4608 23.717C26.9986 23.121 27.1958 21.8023 27.1958 21.8023C27.1958 21.8023 27.3751 20.267 27.3751 18.7135V17.2504C27.3751 15.715 27.1958 14.1616 27.1958 14.1616H27.1779ZM23.9509 17.7923L15.5426 22.3623V13.2042L19.3434 15.2815L23.9509 17.8104V17.7923Z" fill="white"/>
</svg>
