<svg width="47" height="47" viewBox="0 0 47 47" fill="none" xmlns="http://www.w3.org/2000/svg">
<g clip-path="url(#clip0_686_290)">
<path d="M13.1195 0C13.328 0.20012 13.7619 0.55823 13.7619 0.871681V3.8541H31.2854V0.779837C31.2854 0.521998 31.7336 0.156304 31.9278 0H32.6616C32.8558 0.156726 33.3039 0.521998 33.3039 0.779837V3.85368H39.3133C41.3993 3.85368 43.206 5.98507 43.1251 8.02419L43.123 27.8466C43.1693 28.0914 43.8088 28.5127 44.0405 28.7642C47.5418 32.5678 48.0186 38.1501 45.0304 42.4221C41.016 48.1603 32.5209 48.5942 28.0351 43.2125C19.7616 42.9399 11.3857 43.3342 3.09701 43.0123C1.51821 42.6593 0.427202 41.4552 0.000488281 39.9157V7.06572C0.294933 6.17508 0.67826 5.37544 1.42469 4.77381C1.9525 4.34829 3.0414 3.8541 3.71622 3.8541H11.7442V0.596569C11.7442 0.495877 12.2113 0.120493 12.2947 0H13.1204H13.1195ZM11.7433 5.87258H3.89946C3.3746 5.87258 2.59868 6.312 2.30845 6.759C2.25622 6.83947 2.01864 7.34588 2.01864 7.38675V13.6722H41.1023V7.75371C41.1023 6.90393 40.0707 5.87258 39.2215 5.87258H33.3039V10.1396C33.3039 10.7947 32.3937 11.6171 31.7685 11.7232C28.8982 12.2111 28.4054 7.97026 31.2858 7.79963V5.87258H13.7623V9.95587C13.7623 10.7589 12.8659 11.6592 12.0656 11.7452C9.17588 12.0557 8.94547 7.92139 11.7437 7.79963V5.87258H11.7433ZM41.1023 15.6911H2.01864V39.5947C2.01864 39.6352 2.25622 40.142 2.30845 40.2225C2.59868 40.6695 3.37418 41.1089 3.89946 41.1089H26.6067C21.8657 31.8532 31.8486 21.8687 41.1023 26.6109V15.6915V15.6911ZM35.4872 27.4641C28.8473 28.0417 25.134 35.6454 28.9707 41.1759C33.1422 47.1892 42.5008 45.7854 44.5897 38.7706C46.3501 32.8601 41.6516 26.9282 35.4868 27.4641H35.4872Z" fill="white"/>
<path d="M40.8004 32.3192C41.8367 32.0807 42.5271 33.1845 41.8202 33.9812C39.538 36.0106 37.42 38.8283 35.0952 40.7436C34.5362 41.2041 34.147 41.2997 33.5362 40.8304C33.1288 40.5174 30.6216 38.0262 30.4422 37.6858C30.0517 36.9447 30.6844 36.0625 31.4708 36.1893C32.1751 36.303 34.0775 38.7205 34.2674 38.7205L40.4584 32.5264C40.5561 32.4317 40.6648 32.3499 40.8004 32.3187V32.3192Z" fill="white"/>
</g>
<defs>
<clipPath id="clip0_686_290">
<rect width="47" height="47" fill="white"/>
</clipPath>
</defs>
</svg>
