<svg width="55" height="43" viewBox="0 0 55 43" fill="none" xmlns="http://www.w3.org/2000/svg">
<path d="M-0.000111677 34.5287C0.503784 33.1271 1.18506 32.4324 2.55251 31.9333C3.47783 31.5956 4.79594 31.4357 5.63765 31.0308C5.79017 30.9574 5.9314 30.9216 5.98752 30.7311C6.03384 30.5743 6.04363 29.6195 5.98488 29.5162C5.94948 29.4543 5.12208 28.7904 4.93227 28.566C4.14743 27.6377 3.53432 26.2891 3.43452 25.0588C3.38669 24.4713 3.5121 23.7647 3.42623 23.2064C3.33735 22.627 2.74006 21.8267 2.62294 21.0705C2.18796 18.2703 4.33159 14.9353 7.24198 14.9353H15.2354C15.4026 11.1326 15.8523 7.51666 18.197 4.43826C22.8428 -1.66129 32.6895 -1.43344 37.0577 4.87666C38.8206 7.42368 39.2691 9.973 39.5904 13.0203C39.7986 14.9956 39.8841 17.0028 40.0205 18.985C40.2709 19.0399 40.1926 18.9531 40.2607 18.8443C40.6803 18.1727 40.9349 17.6471 41.4794 17.0262C41.6369 16.8468 42.1389 16.5682 42.2134 16.3642C42.2801 16.1821 42.0812 15.6756 42.0812 15.4278C42.0884 10.3787 50.034 10.1932 50.6328 14.7804C50.6802 15.1447 50.539 16.2428 50.585 16.3553C50.6595 16.5382 51.496 17.2437 51.7114 17.5107C54.1235 20.5011 53.1869 23.2998 52.0854 26.5334C51.8684 27.1697 51.5242 27.8609 51.1156 28.39C50.8878 28.6847 49.8762 29.5185 49.8363 29.6022C49.7534 29.7747 49.7391 30.99 49.8009 31.1729C51.6376 32.5131 54.6986 32.8508 54.9378 35.6745C55.1208 37.8361 54.8398 40.3259 54.8779 42.5175C54.4493 43.1676 53.716 43.1273 53.3466 42.4426C53.188 40.4531 53.481 38.3007 53.3285 36.3311C53.1575 34.1211 51.247 34.1203 49.7105 33.1232C49.0868 33.5055 48.6857 34.1952 48.0357 34.5514C46.73 35.2664 45.4229 35.0432 44.2607 34.1983C44.0588 34.0515 43.158 33.1425 43.0796 33.1363C42.8981 33.1217 42.2417 33.6742 41.9513 33.6554C43.6611 36.1321 42.6526 39.4015 42.9109 42.2401C42.7527 43.2575 41.3785 43.2948 41.2098 42.0176C40.8486 39.2866 42.3524 35.4578 39.5222 33.9974C38.1152 33.2712 36.5015 32.7482 35.0866 32.0113C32.1698 38.4048 22.7648 38.394 19.8469 32.0113C18.3804 32.8128 16.558 33.3261 15.1266 34.1441C14.3941 34.5625 13.8318 35.2238 13.7331 36.116C13.5316 37.9422 13.9629 40.2152 13.7241 42.0176C13.575 43.1434 12.4644 43.3732 12.0395 42.3327C12.2783 39.7476 11.266 35.819 12.9848 33.7103L13.7328 32.998C13.3671 32.9834 12.6922 32.5481 12.3871 32.5638C12.1111 32.5784 10.6382 34.2882 10.3219 34.606C10.1117 36.954 10.5275 39.6074 10.3004 41.9181C10.1848 43.0954 9.10429 43.4112 8.58533 42.3531L8.56085 34.606C8.24413 34.2878 6.77198 32.5784 6.49593 32.5638C4.59634 33.474 1.81512 32.9465 1.60497 35.6745C1.43701 37.8557 1.75637 40.2391 1.5869 42.4426C1.16021 43.1853 0.527511 43.1042 -0.000488281 42.5198V34.5291L-0.000111677 34.5287ZM32.6405 25.5759C32.5633 25.7127 32.5859 28.4684 32.6646 28.7331C32.7949 29.1704 34.1775 29.8335 34.5759 29.7997C34.7548 29.7843 35.2583 29.5911 35.4884 29.5231C36.074 29.3494 39.2074 28.1122 39.3584 27.6696C39.0387 24.6438 38.6157 21.6292 38.3039 18.6015C37.8945 14.6271 38.1702 10.016 36.0947 6.51576C32.2982 0.110367 22.5442 0.143026 18.7969 6.58223C16.7671 10.0702 17.0352 14.6594 16.6292 18.6007C16.3174 21.6284 15.8941 24.643 15.5747 27.6688C15.6549 27.9036 17.1022 28.6025 17.4163 28.7458C18.0419 29.032 19.7513 29.7475 20.3576 29.7989C20.6024 29.8197 21.6456 29.3644 21.8791 29.2103C22.7016 28.667 22.1638 26.545 22.3186 25.6297C19.5053 23.827 17.6509 20.035 18.037 16.6427C18.2415 14.8465 19.671 14.6867 20.6555 13.5125C21.0818 13.0038 21.597 11.6086 21.9898 11.4807C22.6986 11.2494 23.2635 11.8119 23.1328 12.5292C22.9565 13.4967 21.8572 14.795 21.1387 15.4278C20.6254 15.8797 19.8296 16.0649 19.74 16.8471C19.2605 21.0417 22.6067 25.0461 26.6766 25.4284C32.1321 25.941 36.0085 21.0202 35.1856 15.6526C35.0297 14.6344 33.0104 13.4203 32.1532 12.945C29.5012 11.4753 26.6454 10.8794 23.683 10.4214C22.9354 10.056 23.0729 8.93214 23.8807 8.80957C24.3255 8.74195 25.4809 8.97018 25.9882 9.05471C29.0455 9.56573 32.6112 10.8748 35.0764 12.809C36.1068 13.6174 36.7772 14.362 36.9086 15.756C37.2686 19.5724 35.9023 23.51 32.6417 25.5752L32.6405 25.5759ZM48.9245 15.3721C48.8688 12.457 43.9838 12.4409 43.7726 15.3168C43.756 15.5427 43.7417 15.4766 43.8837 15.4301C45.6902 14.8373 47.0953 14.7524 48.9249 15.3721H48.9245ZM14.5918 16.6865H7.0277C6.92338 16.6865 5.91182 17.148 5.75816 17.2521C4.57035 18.0567 3.96252 19.7319 4.39297 21.1262C4.52516 21.5539 4.94282 22.0822 5.01851 22.458C5.1684 23.2053 5.0155 24.3057 5.16162 25.1583C6.05869 30.3933 13.3354 30.1624 13.7376 24.6269C13.7825 24.0087 13.6495 23.2495 13.7399 22.6589C13.8322 22.0591 14.5918 21.0863 14.5918 20.3536V16.6865ZM51.3924 23.4727C51.8586 21.2361 51.2282 18.9569 49.3471 17.6244C45.4413 14.858 40.3153 18.4759 41.357 23.1492C41.5114 23.8416 42.2085 25.8103 42.5008 26.4704C43.8283 29.4693 48.1788 29.8439 49.9353 27.0763C50.1116 26.7985 50.6561 25.6735 50.6155 25.4073C50.5142 24.7449 48.4259 23.4274 47.8192 23.1246C47.4463 22.9386 45.7106 22.1867 45.4172 22.1809C44.9788 22.1725 44.4915 24.2873 43.3512 23.5223C42.4865 22.9425 43.3086 22.2078 43.5828 21.6899C43.8558 21.1735 43.8396 20.3424 44.4983 20.208C45.2402 20.057 48.4993 21.5032 49.28 21.9623L51.3924 23.4731V23.4727ZM30.8999 26.538C28.6418 27.4075 26.2914 27.4079 24.0332 26.538V28.7819C24.0332 29.2691 23.3478 30.232 22.9629 30.5359C22.4477 30.9428 21.8505 31.0081 21.353 31.4085C24.0822 36.3138 30.8603 36.3158 33.5805 31.4085C33.0827 31.0081 32.4858 30.9424 31.9706 30.5359C31.5857 30.232 30.9002 29.2691 30.9002 28.7819V26.538H30.8999ZM42.8936 29.5162C42.8277 29.4001 41.9057 28.785 41.789 28.5099L41.0942 27.524C41.2041 29.5584 38.4022 30.0095 37.046 30.7822C36.6295 31.0192 37.1018 31.0189 37.3033 31.113C37.7164 31.3062 40.3056 32.5504 40.4856 32.5346C40.6193 32.5227 42.8284 31.4534 42.8996 31.3374C42.9471 31.2601 42.9425 29.6022 42.894 29.5165L42.8936 29.5162ZM18.0245 30.8087C17.9816 30.7645 17.0823 30.4844 16.8797 30.3883C15.9046 29.9254 14.6362 29.3824 14.0016 28.5103C13.8698 28.7754 12.9415 29.4201 12.8926 29.5661C12.8481 29.6987 12.8474 30.8214 12.8937 30.8982C12.9686 31.0231 15.3548 31.7254 15.6372 31.7662C16.2153 31.8495 17.3237 31.3239 17.8724 31.0354C17.9534 30.9927 18.2102 30.9985 18.0249 30.8083L18.0245 30.8087ZM11.1579 30.4786C10.0127 30.7203 8.93557 30.8121 7.79182 30.4713C7.16252 31.4365 8.9126 32.2518 9.38787 32.9945C9.9686 32.1934 11.3357 31.5863 11.1575 30.4786H11.1579ZM48.1736 30.4786C46.956 30.7622 45.8507 30.7622 44.6339 30.4786C44.7645 30.8613 44.4844 31.7885 44.5427 32.0443C44.6399 32.4681 45.7185 33.1759 46.1892 33.2162C46.8449 33.2723 47.9679 32.7225 48.2316 32.1162C48.3314 31.8872 48.0534 30.8417 48.1732 30.4786H48.1736Z" fill="white"/>
<path d="M4.23781 36.0006C4.5824 36.0006 5.02228 36.2826 5.03583 36.6703C4.91758 38.4197 5.21585 40.4269 5.04939 42.1432C4.94055 43.2644 3.53582 43.2644 3.42698 42.1432C3.26015 40.4269 3.55879 38.4193 3.44054 36.6703C3.4541 36.2826 3.89397 36.0006 4.23856 36.0006H4.23781Z" fill="white"/>
<path d="M50.605 37.0784C51.1895 37.0484 51.4572 37.4392 51.5051 37.9717C51.5777 38.7855 51.6309 41.6399 51.4979 42.353C51.345 43.173 50.0096 43.2033 49.8853 42.2516C49.7836 41.4755 49.7825 38.5242 49.8973 37.7642C49.9531 37.3961 50.231 37.0972 50.6054 37.0784H50.605Z" fill="white"/>
<path d="M18.8279 37.7557C19.2343 37.7415 19.554 37.9855 19.6708 38.3778C19.8067 38.8338 19.818 41.7113 19.7171 42.2204C19.5288 43.1729 18.3116 43.1921 18.0732 42.4156C17.967 42.0694 17.9595 38.8408 18.048 38.4377C18.1218 38.1007 18.4833 37.768 18.8283 37.7557H18.8279Z" fill="white"/>
<path d="M36.1059 37.7557C36.4505 37.7676 36.8124 38.1004 36.8862 38.4377C36.9743 38.8408 36.9668 42.0698 36.861 42.4156C36.6226 43.1921 35.405 43.1729 35.2171 42.2204C35.1165 41.7109 35.1278 38.8338 35.2634 38.3778C35.3802 37.9855 35.6999 37.7415 36.1063 37.7557H36.1059Z" fill="white"/>
<path d="M6.62152 19.3369C8.17915 19.3334 9.8814 19.4425 11.3728 19.9159C11.9764 20.1076 13.0125 20.3958 12.8035 21.2638C12.5093 22.4852 11.1457 21.593 10.4312 21.4236C10.0004 21.3214 9.40236 21.2315 8.95722 21.1762C8.28535 21.0928 7.12278 21.1696 6.56239 20.9925C5.75759 20.7377 5.83781 19.5674 6.62152 19.3373V19.3369Z" fill="white"/>
</svg>
