<svg width="46" height="45" viewBox="0 0 46 45" fill="none" xmlns="http://www.w3.org/2000/svg">
<g clip-path="url(#clip0_686_254)">
<path d="M9.58649 2.69085H11.6238C12.3741 2.69085 12.9818 2.08822 12.9818 1.34577C12.9818 0.603324 12.3741 0 11.6238 0H9.58649C8.83623 0 8.22852 0.602636 8.22852 1.34508C8.22852 2.08753 8.83693 2.69017 9.58649 2.69017V2.69085Z" fill="white"/>
<path d="M19.0006 2.69085H23.4263C24.1766 2.69085 24.7843 2.08822 24.7843 1.34577C24.7843 0.603324 24.1759 0 23.4263 0H19.0006C18.2503 0 17.6426 0.602636 17.6426 1.34508C17.6426 2.08753 18.251 2.69017 19.0006 2.69017V2.69085Z" fill="white"/>
<path d="M30.8023 2.6909H35.2281C35.9783 2.6909 36.586 2.08826 36.586 1.34581C36.586 0.603368 35.9776 0.000732422 35.2281 0.000732422H30.8023C30.0521 0.000732422 29.4443 0.603368 29.4443 1.34581C29.4443 2.08826 30.0527 2.6909 30.8023 2.6909Z" fill="white"/>
<path d="M44.6414 0H42.6041C41.8538 0 41.2461 0.602636 41.2461 1.34508C41.2461 2.08753 41.8545 2.69017 42.6041 2.69017H43.2834V3.36305C43.2834 4.10619 43.8918 4.70813 44.6414 4.70813C45.3909 4.70813 45.9993 4.1055 45.9993 3.36305V1.34508C45.9993 0.601947 45.3909 0 44.6414 0Z" fill="white"/>
<path d="M44.6414 21.0144C43.8912 21.0144 43.2834 21.617 43.2834 22.3595V26.7432C43.2834 27.4864 43.8919 28.0883 44.6414 28.0883C45.391 28.0883 45.9994 27.4857 45.9994 26.7432V22.3595C45.9994 21.6164 45.391 21.0144 44.6414 21.0144Z" fill="white"/>
<path d="M44.6414 9.32397C43.8912 9.32397 43.2834 9.92661 43.2834 10.6691V15.0528C43.2834 15.7959 43.8919 16.3979 44.6414 16.3979C45.391 16.3979 45.9994 15.7952 45.9994 15.0528V10.6691C45.9994 9.92592 45.391 9.32397 44.6414 9.32397Z" fill="white"/>
<path d="M44.6414 32.7042C43.8912 32.7042 43.2834 33.3069 43.2834 34.0493V36.0673C43.2834 36.8104 43.8919 37.4124 44.6414 37.4124C45.391 37.4124 45.9994 36.8097 45.9994 36.0673V34.0493C45.9994 33.3062 45.391 32.7042 44.6414 32.7042Z" fill="white"/>
<path d="M34.5189 16.8056C34.4521 16.9723 34.3569 17.1348 34.2338 17.2932L31.5213 20.8257V22.1556H36.196V20.7341H33.494L35.4402 18.3001C35.6648 18.0164 35.84 17.6996 35.9645 17.3497C36.0896 16.9998 36.1522 16.6472 36.1522 16.2918V16.2863C36.1522 15.8558 36.0604 15.4874 35.8776 15.1823C35.6947 14.8772 35.4284 14.6451 35.0786 14.4853C34.7289 14.3255 34.3075 14.2456 33.8145 14.2456C33.3577 14.2456 32.9558 14.3379 32.6074 14.5232C32.2598 14.7077 31.983 14.9763 31.7786 15.3283C31.5742 15.6802 31.4553 16.1003 31.4226 16.588V16.5935H32.9502V16.588C32.9829 16.2939 33.0754 16.0666 33.2277 15.9068C33.38 15.747 33.5795 15.6671 33.8257 15.6671C34.0718 15.6671 34.2748 15.7243 34.4125 15.8393C34.5502 15.9543 34.619 16.1176 34.619 16.329V16.34C34.619 16.4833 34.5856 16.6389 34.5182 16.8056H34.5189Z" fill="white"/>
<path d="M16.2889 22.7513C16.2889 22.2031 16.4377 21.7775 16.7367 21.4744C17.035 21.1721 17.4577 21.0206 18.0042 21.0206C18.5939 21.0206 19.0507 21.1969 19.374 21.5495C19.6974 21.9021 19.8594 22.4028 19.8594 23.0509V29.4506H22.8152V23.0399C22.8152 23.0124 22.8138 22.9855 22.8138 22.958L22.8152 22.9648C22.8152 22.345 22.9682 21.8663 23.2734 21.5275C23.5787 21.1893 24.016 21.0199 24.5841 21.0199C25.1522 21.0199 25.6035 21.1962 25.9164 21.5488C26.2293 21.9014 26.3857 22.4021 26.3857 23.0502V29.4499H29.3415V23.0392C29.3415 22.0206 29.192 21.148 28.8938 20.4214C28.5955 19.6948 28.1602 19.1431 27.5886 18.765C27.0171 18.3876 26.328 18.1989 25.5228 18.1989C24.8323 18.1989 24.2052 18.3896 23.6406 18.7705C23.1038 19.1328 22.6636 19.6438 22.3187 20.2988C22.026 19.6335 21.6158 19.1211 21.0838 18.765C20.5192 18.3876 19.8413 18.1989 19.0507 18.1989C18.3818 18.1989 17.7991 18.3772 17.3034 18.7333C16.9147 19.0129 16.5767 19.3938 16.2896 19.8745V18.3593H13.3337V29.4499H16.2896V22.7506L16.2889 22.7513Z" fill="white"/>
<path d="M44.7845 41.5172C44.7845 41.502 44.7831 41.4875 44.7817 41.4724C44.7817 41.4655 44.7803 41.4586 44.7797 41.4517C44.7783 41.4421 44.7769 41.4324 44.7755 41.4228C44.7734 41.407 44.7713 41.3904 44.7678 41.3746C44.7664 41.367 44.7651 41.3594 44.7637 41.3519C44.763 41.3484 44.7616 41.3443 44.7609 41.3408C44.7595 41.3353 44.7581 41.3298 44.7567 41.3243C44.7532 41.3099 44.7498 41.2947 44.7456 41.2802C44.74 41.261 44.7331 41.2424 44.7261 41.2231C44.7219 41.2114 44.7178 41.1997 44.7129 41.1879C44.7046 41.1666 44.6948 41.1459 44.6844 41.1253C44.6802 41.1163 44.676 41.1074 44.6712 41.0984C44.6594 41.0757 44.6462 41.053 44.6322 41.0309C44.6288 41.0261 44.6267 41.0206 44.6232 41.0158C44.6225 41.0144 44.6211 41.013 44.6204 41.0116C44.6169 41.0061 44.6142 41.0013 44.6107 40.9958C44.6058 40.9889 44.6003 40.9827 44.5954 40.9758C44.5884 40.9662 44.5815 40.9565 44.5738 40.9476C44.569 40.9414 44.5648 40.9352 44.5599 40.9297C44.5571 40.9262 44.5544 40.9228 44.5516 40.9187C44.5446 40.9104 44.537 40.9028 44.53 40.8952C44.5238 40.8884 44.5175 40.8815 44.5113 40.8746C44.505 40.8677 44.4994 40.8608 44.4925 40.8546C44.4897 40.8518 44.4869 40.8491 44.4841 40.8463C44.4779 40.8401 44.4709 40.8346 44.4647 40.8291C44.457 40.8215 44.4487 40.8147 44.4403 40.8071C44.4334 40.8009 44.4264 40.794 44.4188 40.7878C44.4153 40.7844 44.4111 40.7816 44.407 40.7788C44.4021 40.7747 44.3972 40.7713 44.3924 40.7678C44.3784 40.7575 44.3645 40.7465 44.3506 40.7368C44.3472 40.7348 44.3444 40.732 44.3409 40.7293C44.3353 40.7251 44.3291 40.7217 44.3235 40.7182C44.3221 40.7175 44.3214 40.7169 44.32 40.7162L40.5236 38.2891C40.0507 37.9867 39.4201 38.1217 39.1155 38.5901C38.811 39.0584 38.9466 39.6831 39.4194 39.9847L40.3101 40.5543H4.48759V4.77017L5.06262 5.65243C5.25731 5.95133 5.58481 6.11456 5.91926 6.11456C6.10839 6.11456 6.2996 6.06222 6.47066 5.9534C6.94348 5.65105 7.07907 5.02706 6.77451 4.55873L4.32488 0.798282C4.32488 0.798282 4.3221 0.79415 4.32071 0.792084C4.31793 0.787951 4.31584 0.783819 4.31306 0.780375C4.30263 0.764535 4.29081 0.750071 4.27899 0.734919C4.27203 0.725966 4.26578 0.717013 4.25882 0.708748C4.25743 0.706682 4.25604 0.704616 4.25465 0.703238C4.24353 0.689464 4.23101 0.677067 4.21849 0.663981C4.20946 0.65365 4.20042 0.643319 4.19068 0.633677C4.18999 0.632988 4.1886 0.632299 4.1879 0.630922C4.17747 0.620591 4.16634 0.610949 4.15522 0.601307C4.14062 0.588221 4.12671 0.575135 4.11211 0.563427C4.10307 0.555851 4.09334 0.549652 4.0843 0.542076C4.06622 0.528302 4.04814 0.515216 4.02937 0.502819C4.02658 0.501441 4.0245 0.499375 4.02172 0.497309C4.01407 0.492488 4.00642 0.489044 3.99877 0.484223C3.98069 0.473204 3.96192 0.462184 3.94315 0.452542C3.92993 0.445654 3.91603 0.439456 3.90282 0.433257C3.891 0.427748 3.87917 0.421549 3.86735 0.416728C3.86318 0.41535 3.85901 0.413973 3.85484 0.411907C3.83815 0.40502 3.82146 0.39951 3.80408 0.393311C3.79435 0.389868 3.78461 0.385735 3.77418 0.38298C3.77001 0.381603 3.76584 0.380914 3.76236 0.379537C3.74428 0.374027 3.72551 0.369206 3.70673 0.365073C3.697 0.363007 3.68727 0.360252 3.67684 0.358186C3.67336 0.358186 3.66988 0.356809 3.6671 0.35612C3.64833 0.352676 3.63025 0.349921 3.61147 0.347167C3.59965 0.345789 3.58783 0.343723 3.57601 0.342345C3.57393 0.342345 3.57115 0.342345 3.56906 0.342345C3.55168 0.340968 3.53429 0.339591 3.51691 0.338902C3.50161 0.338213 3.48701 0.337524 3.47171 0.337524C3.47171 0.337524 3.47032 0.337524 3.46963 0.337524C3.46893 0.337524 3.46824 0.337524 3.46754 0.337524C3.45294 0.337524 3.43764 0.337524 3.42304 0.338902C3.40496 0.339591 3.38688 0.340968 3.36881 0.342345C3.36741 0.342345 3.36533 0.342345 3.36394 0.342345C3.35212 0.343723 3.3403 0.3451 3.32848 0.347167C3.30901 0.349921 3.28884 0.352676 3.26937 0.356809C3.26729 0.356809 3.2659 0.356809 3.26381 0.357497C3.25338 0.359564 3.24295 0.362319 3.23322 0.365073C3.21375 0.369895 3.19428 0.374716 3.17481 0.380225C3.1616 0.384358 3.14839 0.38849 3.13518 0.393311C3.11779 0.39951 3.10041 0.40502 3.08372 0.412596C3.06773 0.418794 3.05243 0.42637 3.03644 0.433257C3.02253 0.439456 3.00932 0.445654 2.99542 0.452542C2.97595 0.462184 2.95787 0.473203 2.93909 0.484912C2.93145 0.489044 2.9238 0.493177 2.91684 0.497998C2.91406 0.499375 2.91198 0.501441 2.90989 0.503507C2.89042 0.515905 2.87234 0.529679 2.85357 0.543454C2.84453 0.550341 2.8348 0.556539 2.82645 0.564115C2.81115 0.576512 2.79655 0.589598 2.78195 0.602684C2.77082 0.613015 2.7597 0.622657 2.74857 0.632988C2.73814 0.643319 2.72841 0.654339 2.71868 0.665358C2.70546 0.679821 2.69156 0.694285 2.67904 0.709437C2.67209 0.71839 2.66514 0.727343 2.65888 0.736297C2.64497 0.754893 2.63106 0.772799 2.61855 0.792084C2.61716 0.794839 2.61507 0.796905 2.61368 0.798971L0.162657 4.55873C-0.142592 5.02706 -0.00630776 5.65174 0.466514 5.9534C0.637564 6.06291 0.828779 6.11456 1.01791 6.11456C1.35236 6.11456 1.67986 5.95133 1.87455 5.65243L2.45028 4.76879V41.5633C2.45028 42.1205 2.90641 42.5723 3.46893 42.5723H40.3115L39.4194 43.1426C38.9466 43.4449 38.811 44.0689 39.1155 44.5372C39.3102 44.8361 39.6377 44.9994 39.9722 44.9994C40.1613 44.9994 40.3525 44.947 40.5236 44.8382L44.32 42.4118C44.3235 42.4097 44.327 42.407 44.3305 42.4042C44.3346 42.4015 44.3388 42.3987 44.343 42.396C44.3548 42.3884 44.3652 42.3794 44.3771 42.3712C44.3889 42.3622 44.4014 42.3533 44.4132 42.3443C44.4195 42.3395 44.425 42.334 44.4313 42.3285C44.432 42.3278 44.4334 42.3271 44.4341 42.3257C44.4445 42.3168 44.4556 42.3078 44.4661 42.2982C44.4918 42.2741 44.5161 42.2493 44.5384 42.2238C44.5412 42.221 44.5439 42.2183 44.546 42.2155C44.5731 42.1838 44.5968 42.1515 44.6197 42.117C44.6211 42.115 44.6225 42.1129 44.6239 42.1108C44.6288 42.104 44.6322 42.0964 44.6364 42.0888C44.6455 42.0743 44.6552 42.0599 44.6635 42.0447C44.6656 42.0406 44.6677 42.0365 44.6698 42.0323C44.6767 42.0192 44.6823 42.0068 44.6886 41.9938C44.6941 41.982 44.7004 41.971 44.7053 41.9586C44.7073 41.9531 44.7094 41.9476 44.7115 41.9421C44.7178 41.9269 44.7233 41.9111 44.7289 41.896C44.7324 41.8863 44.7358 41.8774 44.7393 41.8684C44.7414 41.8622 44.7428 41.856 44.7449 41.8498C44.7498 41.8333 44.7539 41.8161 44.7581 41.7995C44.7602 41.7906 44.763 41.7823 44.765 41.7734C44.7664 41.7672 44.7671 41.7603 44.7685 41.7541C44.772 41.7375 44.7741 41.721 44.7762 41.7045C44.7776 41.6942 44.7797 41.6845 44.7803 41.6742C44.7803 41.668 44.7817 41.6618 44.7817 41.6556C44.7831 41.6404 44.7838 41.6253 44.7845 41.6101C44.7845 41.5977 44.7859 41.5847 44.7859 41.5723C44.7859 41.5695 44.7859 41.5661 44.7859 41.5633C44.7859 41.5605 44.7859 41.5571 44.7859 41.5543C44.7859 41.542 44.7852 41.5296 44.7845 41.5172Z" fill="white"/>
</g>
<defs>
<clipPath id="clip0_686_254">
<rect width="46" height="45" fill="white"/>
</clipPath>
</defs>
</svg>
