<svg width="46" height="46" viewBox="0 0 46 46" fill="none" xmlns="http://www.w3.org/2000/svg">
<g clip-path="url(#clip0_686_276)">
<path d="M0 1.45097C0.2996 0.717188 0.823474 0.118491 1.6599 0.0137623L16.4708 0.0100098C17.2687 0.117809 17.5165 1.21934 16.9177 1.72252C16.8447 1.78358 16.431 1.98997 16.3771 1.98997H1.97416V24.8933H9.82613C9.85612 24.8933 10.273 25.1709 10.3221 25.2306C10.8337 25.8553 10.4424 26.7845 9.64923 26.8719C7.12973 26.6542 4.13237 27.1591 1.67012 26.8596C0.809499 26.7548 0.318005 26.1923 0 25.4326L0 1.45097Z" fill="white"/>
<path d="M30.0622 45.9999H15.8835C15.0382 45.4589 15.1837 43.9125 15.2519 42.9877C15.3903 41.1083 16.5031 39.3593 18.283 38.6566C19.7565 38.0746 24.1762 38.1595 25.8933 38.2714C28.5594 38.4451 30.4964 40.3077 30.6934 42.9877C30.7616 43.9132 30.9071 45.4592 30.0618 45.9999H30.0622ZM28.7162 44.024C28.8065 42.5759 28.3556 41.0442 26.8923 40.5056C25.744 40.0829 21.7906 40.161 20.4112 40.2473C18.0898 40.393 17.117 41.7551 17.2298 44.024H28.7162Z" fill="white"/>
<path d="M0 42.2281C0.618628 39.9097 2.28875 38.438 4.70771 38.2726C6.29807 38.1638 10.7825 38.0901 12.1394 38.566C13.0283 38.8778 14.8904 39.9534 13.9568 41.0631C13.1313 42.0442 12.3879 40.7854 11.6377 40.5053C10.5477 40.0983 6.20571 40.1468 4.8921 40.2539C3.84878 40.3388 2.83887 40.768 2.31466 41.716C2.25842 41.8177 1.97416 42.4979 1.97416 42.5429V44.0248H12.5184C12.7195 44.0248 13.1207 44.295 13.241 44.4693C13.6674 45.0865 13.3501 45.6036 12.8327 46.001H0V42.2287V42.2281Z" fill="white"/>
<path d="M45.4077 46H33.1135C32.5961 45.6029 32.2788 45.0857 32.7052 44.4683C32.8255 44.2939 33.2267 44.0238 33.4278 44.0238H43.9721V42.5419C43.9721 42.4972 43.6878 41.8166 43.6316 41.7149C43.0835 40.7239 42.0565 40.3231 40.9696 40.2477C39.6464 40.1559 35.2312 40.0915 34.1909 40.566C33.528 40.8682 33.0791 41.7637 32.2239 41.2766C31.7982 41.034 31.6721 40.5036 31.79 40.0485C31.9264 39.5225 33.2986 38.7436 33.8071 38.5652C35.1644 38.0893 39.6481 38.163 41.2389 38.2718C43.3705 38.4179 45.2076 39.6947 45.7901 41.7999C45.995 42.5398 46.0543 44.469 45.9503 45.2399C45.8978 45.6298 45.6408 45.7417 45.408 45.9993L45.4077 46Z" fill="white"/>
<path d="M14.3581 16.4056C14.645 13.8512 17.0875 11.6833 19.6036 11.5066C21.4769 11.3752 24.5669 11.3612 26.431 11.5072C28.6775 11.6836 31.5876 14.0395 31.5876 16.4053V18.1567H34.5042C34.8968 18.1567 35.3771 18.6217 35.4418 19.0146C35.5332 19.5683 35.5325 22.6849 35.4258 23.2106C35.389 23.3921 35.2469 23.5811 35.1344 23.7271C34.2145 24.9232 32.6159 26.0308 31.6343 27.2296C31.4625 28.0609 31.7025 29.069 31.5917 29.8816C31.4438 30.9657 29.7447 31.1032 29.6104 29.5213C29.4723 27.8948 29.473 24.8549 29.6104 23.228C29.6816 22.3834 30.2645 21.6687 31.1316 22.161C31.2389 22.222 31.5879 22.6048 31.5879 22.6925V24.4439C31.8034 24.2051 33.4725 22.7344 33.4725 22.6027V20.1329H12.4739V22.6027C12.4739 22.7344 14.143 24.2051 14.3584 24.4439V22.6925C14.3584 22.6051 14.7071 22.222 14.8148 22.161C15.6819 21.669 16.2644 22.3834 16.336 23.228C16.4733 24.8549 16.474 27.8948 16.336 29.5213C16.2017 31.1032 14.5026 30.9657 14.3546 29.8816C14.2439 29.069 14.4838 28.0613 14.312 27.2296C13.3304 26.0308 11.7319 24.9232 10.8119 23.7271C10.6995 23.5811 10.5573 23.3918 10.5205 23.2106C10.4135 22.6849 10.4131 19.568 10.5045 19.0146C10.5693 18.6217 11.0495 18.1567 11.4421 18.1567H14.3587C14.4037 17.5965 14.297 16.9538 14.3587 16.4053L14.3581 16.4056ZM29.6138 18.157V16.5854C29.6138 16.4459 29.2273 15.5555 29.1233 15.3699C28.5677 14.3789 27.3901 13.5875 26.2524 13.4831C24.6351 13.3344 21.3112 13.3344 19.6939 13.4831C18.5841 13.5851 17.4154 14.354 16.8537 15.3109C16.7416 15.502 16.3325 16.436 16.3325 16.5858V18.1574H29.6138V18.157Z" fill="white"/>
<path d="M29.5686 1.99022C28.4991 1.81351 28.361 0.233358 29.4749 0.0102539L44.2858 0.0140064C45.063 0.101679 45.7044 0.712656 45.9062 1.4461L45.9495 25.1214C45.8803 26.0278 45.1785 26.7496 44.2756 26.8591C41.8127 27.1583 38.8167 26.6541 36.2965 26.8714C35.5034 26.7841 35.1121 25.8552 35.6237 25.2302C35.6724 25.1705 36.0896 24.8928 36.1196 24.8928H43.9716V1.99022H29.5686Z" fill="white"/>
<path d="M22.2352 0.0395487C26.3823 -0.459194 29.293 3.87291 27.0132 7.42654C24.7336 10.9795 19.2413 10.01 18.274 5.92997C17.6468 3.28513 19.4843 0.370452 22.2349 0.0398899L22.2352 0.0395487ZM22.4114 2.01166C19.1639 2.51996 19.547 7.80486 23.1037 7.64964C26.929 7.48249 26.5407 1.36487 22.4114 2.01166Z" fill="white"/>
<path d="M6.97794 28.7787C12.6557 28.0087 12.9434 36.3812 7.74825 36.4734C2.88887 36.5593 2.52962 29.3821 6.97794 28.7787ZM7.24517 30.7528C4.88893 31.1537 5.61458 35.0952 8.18793 34.3897C10.3567 33.7954 9.76399 30.3243 7.24517 30.7528Z" fill="white"/>
<path d="M22.2317 28.777C27.8839 27.8968 28.3662 36.4273 23.0082 36.4706C18.2279 36.5092 17.8601 29.4575 22.2317 28.777ZM22.5903 30.7532C20.4276 31.1223 20.7105 34.5142 23.0037 34.4705C25.636 34.4201 25.3385 30.2844 22.5903 30.7532Z" fill="white"/>
<path d="M37.5768 28.7769C41.7923 28.1697 43.8377 33.4918 40.448 35.7822C37.3048 37.9058 33.3193 34.6711 34.7113 31.1185C35.1421 30.019 36.3951 28.9475 37.5768 28.7773V28.7769ZM37.846 30.7531C35.8528 31.0963 35.9544 34.4599 38.2884 34.4691C40.8703 34.4797 40.7459 30.2537 37.846 30.7531Z" fill="white"/>
<path d="M20.1014 26.1955C19.9214 27.0262 18.3846 27.1961 18.1664 25.9765C18.0574 25.3662 18.056 23.4391 18.1838 22.8398C18.2908 22.3386 18.6467 22.0391 19.1545 22.0149C21.6093 22.1971 24.3745 21.7877 26.7911 22.0149C27.4305 22.0749 27.7318 22.4379 27.8085 23.0622C27.8838 23.6759 27.8906 25.6463 27.7229 26.1904C27.5365 26.7956 26.8599 27.0446 26.3006 26.727C26.1932 26.666 25.8442 26.2832 25.8442 26.1955V23.9952H20.101C20.008 24.626 20.2268 25.6153 20.101 26.1955H20.1014Z" fill="white"/>
</g>
<defs>
<clipPath id="clip0_686_276">
<rect width="46" height="46" fill="white"/>
</clipPath>
</defs>
</svg>
