<svg width="133" height="104" viewBox="0 0 133 104" fill="none" xmlns="http://www.w3.org/2000/svg">
<path d="M0.500904 82.8667C1.71024 79.5027 3.34528 77.8355 6.62711 76.6377C8.84784 75.8272 12.0113 75.4436 14.0313 74.4716C14.3974 74.2955 14.7363 74.2098 14.871 73.7524C14.9822 73.3762 15.0057 71.0847 14.8647 70.8366C14.7797 70.6882 12.794 69.0947 12.3385 68.5562C10.4549 66.3284 8.98342 63.0917 8.7439 60.1391C8.62911 58.7291 8.93009 57.0333 8.72402 55.6935C8.51071 54.3029 7.07722 52.3822 6.79613 50.5674C5.7522 43.847 10.8968 35.8429 17.8817 35.8429H37.0656C37.4669 26.7167 38.5461 18.0386 44.1734 10.6505C55.3232 -3.98821 78.9549 -3.44139 89.4385 11.7027C93.6694 17.8154 94.7458 23.9337 95.5168 31.2471C96.0166 35.9877 96.2218 40.8049 96.549 45.5621C97.15 45.694 96.962 45.4856 97.1256 45.2246C98.1325 43.6128 98.7435 42.3513 100.05 40.8611C100.428 40.4305 101.633 39.762 101.812 39.2723C101.972 38.8352 101.495 37.6199 101.495 37.0251C101.512 24.9075 120.581 24.4621 122.018 35.4713C122.132 36.3455 121.793 38.9809 121.903 39.2511C122.082 39.69 124.09 41.3831 124.607 42.0239C130.396 49.2008 128.148 55.9176 125.504 63.6782C124.984 65.2052 124.158 66.8641 123.177 68.1339C122.63 68.8411 120.202 70.8422 120.107 71.0432C119.908 71.4572 119.873 74.3739 120.022 74.8128C124.43 78.0292 131.776 78.8397 132.35 85.6164C132.789 90.8043 132.115 96.7797 132.206 102.039C131.178 103.6 129.418 103.503 128.531 101.86C128.151 97.0849 128.854 91.9192 128.488 87.1923C128.078 81.8883 123.492 81.8864 119.805 79.4935C118.308 80.411 117.345 82.0663 115.785 82.9211C112.652 84.6371 109.515 84.1014 106.725 82.0736C106.241 81.7214 104.079 79.5396 103.891 79.5249C103.455 79.4898 101.88 80.8158 101.183 80.7707C105.286 86.7147 102.866 94.561 103.486 101.374C103.106 103.815 99.8082 103.905 99.4033 100.84C98.5365 94.2853 102.146 85.0964 95.3532 81.5914C91.9765 79.8485 88.1035 78.5935 84.7078 76.8249C77.7076 92.169 55.1361 92.1432 48.1331 76.8249C44.6136 78.7485 40.2399 79.9804 36.8044 81.9436C35.0465 82.9478 33.697 84.5348 33.4602 86.6759C32.9767 91.0588 34.0116 96.5141 33.4385 100.84C33.0806 103.542 30.4152 104.093 29.3957 101.596C29.9687 95.3919 27.5392 85.9632 31.6643 80.9025L33.4593 79.1929C32.5817 79.1579 30.962 78.1131 30.2299 78.1509C29.5674 78.186 26.0325 82.2894 25.2733 83.052C24.7689 88.6871 25.7668 95.0553 25.2218 100.601C24.9443 103.426 22.3512 104.184 21.1057 101.645L21.0469 83.052C20.2868 82.2885 16.7537 78.186 16.0912 78.1509C11.5322 80.3354 4.8574 79.0694 4.35306 85.6164C3.94995 90.8513 4.7164 96.5713 4.30967 101.86C3.28563 103.642 1.76718 103.448 0.5 102.045V82.8676L0.500904 82.8667ZM78.8374 61.3802C78.6521 61.7085 78.7063 68.322 78.8952 68.9573C79.208 70.0067 82.5259 71.5983 83.4822 71.5172C83.9115 71.4803 85.12 71.0164 85.6722 70.8532C87.0777 70.4364 94.5976 67.4672 94.96 66.4049C94.1927 59.1432 93.1777 51.9082 92.4293 44.6418C91.4468 35.1034 92.1084 24.037 87.1274 15.6364C78.0158 0.263705 54.6064 0.342086 45.6132 15.796C40.7416 24.167 41.3851 35.1809 40.4107 44.64C39.6624 51.9063 38.6465 59.1413 37.88 66.4031C38.0725 66.9665 41.546 68.6438 42.2998 68.9878C43.801 69.6748 47.9036 71.3917 49.3587 71.5153C49.9462 71.5651 52.4499 70.4724 53.0102 70.1026C54.9842 68.7987 53.6935 63.7058 54.065 61.5093C47.3134 57.1827 42.8629 48.0823 43.7893 39.9409C44.2801 35.6299 47.711 35.2463 50.0737 32.4283C51.0968 31.2074 52.3333 27.8592 53.276 27.5521C54.977 26.997 56.3327 28.347 56.0191 30.0686C55.5961 32.3905 52.9578 35.5064 51.2333 37.0251C50.0014 38.1095 48.0916 38.554 47.8764 40.4314C46.7259 50.4983 54.7564 60.1086 64.5242 61.0261C77.6172 62.2563 86.9204 50.4466 84.9455 37.5645C84.5713 35.1209 79.725 32.207 77.6678 31.0663C71.303 27.5392 64.4492 26.109 57.3396 25.0098C55.5455 24.1329 55.8754 21.4357 57.8141 21.1415C58.8816 20.9792 61.6545 21.527 62.872 21.7298C70.2094 22.9563 78.7669 26.0979 84.6834 30.7399C87.1563 32.6801 88.7651 34.4671 89.0806 37.8126C89.9446 46.9721 86.6655 56.422 78.8401 61.3784L78.8374 61.3802ZM117.918 36.8914C117.785 29.8952 106.061 29.8565 105.554 36.7586C105.514 37.3008 105.48 37.1422 105.821 37.0306C110.156 35.6078 113.528 35.404 117.919 36.8914H117.918ZM35.521 40.046H17.3674C17.117 40.046 14.6893 41.1535 14.3206 41.4034C11.4699 43.3343 10.0111 47.3547 11.0442 50.7011C11.3614 51.7275 12.3638 52.9954 12.5454 53.8972C12.9052 55.6907 12.5382 58.3317 12.8889 60.3779C15.0418 72.9418 32.5058 72.3876 33.4711 59.1026C33.5786 57.6189 33.2596 55.7968 33.4765 54.3795C33.6979 52.94 35.521 50.6052 35.521 48.8467V40.046ZM123.841 56.3325C124.96 50.9649 123.447 45.4948 118.933 42.2969C109.559 35.6576 97.2567 44.3403 99.7567 55.5561C100.127 57.2178 101.8 61.9427 102.502 63.5269C105.688 70.7241 116.129 71.6232 120.344 64.9811C120.767 64.3144 122.074 61.6145 121.977 60.9754C121.734 59.3857 116.722 56.2237 115.266 55.4971C114.371 55.0508 110.205 53.2462 109.501 53.2324C108.449 53.2121 107.279 58.2874 104.543 56.4515C102.467 55.06 104.44 53.2969 105.098 52.0539C105.754 50.8145 105.715 48.82 107.296 48.4972C109.076 48.1349 116.898 51.6057 118.772 52.7077L123.841 56.3335V56.3325ZM74.6599 63.6892C69.2404 65.776 63.5996 65.7769 58.1802 63.6892V69.0744C58.1802 70.2437 56.5352 72.5545 55.6115 73.2839C54.375 74.2605 52.9415 74.4172 51.7476 75.3781C58.2977 87.1508 74.5649 87.1555 81.0934 75.3781C79.8985 74.4172 78.4659 74.2596 77.2295 73.2839C76.3057 72.5545 74.6608 70.2437 74.6608 69.0744V63.6892H74.6599ZM103.444 70.8366C103.286 70.5581 101.074 69.0818 100.793 68.4216L99.1258 66.0554C99.3897 70.9381 92.6652 72.0206 89.4105 73.875C88.4108 74.444 89.5442 74.4431 90.0278 74.669C91.0193 75.1328 97.2332 78.1186 97.6652 78.0808C97.9861 78.0522 103.288 75.486 103.459 75.2075C103.573 75.0221 103.562 71.0432 103.445 70.8375L103.444 70.8366ZM43.7595 73.9387C43.6564 73.8326 41.4981 73.1604 41.0118 72.9298C38.6718 71.8187 35.6276 70.5157 34.1047 68.4225C33.7883 69.0588 31.5604 70.6061 31.4429 70.9565C31.3362 71.2746 31.3344 73.9691 31.4456 74.1535C31.6254 74.4532 37.3522 76.1388 38.03 76.2366C39.4174 76.4367 42.0774 75.1752 43.3943 74.4827C43.5886 74.3803 44.2051 74.3942 43.7604 73.9377L43.7595 73.9387ZM27.2798 73.1465C24.5312 73.7266 21.9463 73.947 19.2013 73.129C17.691 75.4454 21.8911 77.4021 23.0318 79.1846C24.4255 77.262 27.7064 75.805 27.2789 73.1465H27.2798ZM116.116 73.1465C113.194 73.8271 110.541 73.8271 107.621 73.1465C107.935 74.065 107.262 76.2901 107.402 76.9042C107.635 77.9213 110.224 79.6199 111.354 79.7167C112.927 79.8513 115.623 78.5318 116.255 77.0766C116.495 76.5271 115.828 74.018 116.115 73.1465H116.116Z" fill="#6E91A0"/>
<path d="M10.6718 86.3989C11.4988 86.3989 12.5545 87.0758 12.587 88.0062C12.3032 92.2046 13.0191 97.0218 12.6196 101.141C12.3584 103.832 8.98704 103.832 8.72583 101.141C8.32543 97.0218 9.04217 92.2037 8.75837 88.0062C8.7909 87.0758 9.84659 86.3989 10.6736 86.3989H10.6718Z" fill="#6E91A0"/>
<path d="M121.951 88.9853C123.354 88.9134 123.997 89.8512 124.111 91.1293C124.286 93.0823 124.413 99.9328 124.094 101.644C123.727 103.612 120.522 103.685 120.224 101.401C119.98 99.5381 119.977 92.4553 120.253 90.6313C120.387 89.7479 121.054 89.0305 121.952 88.9853H121.951Z" fill="#6E91A0"/>
<path d="M45.688 90.6118C46.6632 90.5776 47.4306 91.1632 47.7108 92.1047C48.037 93.1992 48.0641 100.105 47.8219 101.327C47.37 103.613 44.4488 103.659 43.8767 101.795C43.6218 100.964 43.6037 93.2158 43.8161 92.2485C43.9933 91.4398 44.861 90.6413 45.6889 90.6118H45.688Z" fill="#6E91A0"/>
<path d="M87.154 90.6118C87.981 90.6404 88.8496 91.4389 89.0267 92.2485C89.2382 93.2158 89.2202 100.965 88.9662 101.795C88.3941 103.659 85.472 103.613 85.0209 101.327C84.7796 100.104 84.8067 93.1992 85.1321 92.1047C85.4123 91.1632 86.1797 90.5776 87.1549 90.6118H87.154Z" fill="#6E91A0"/>
<path d="M16.3925 46.4069C20.1308 46.3986 24.2161 46.6605 27.7953 47.7966C29.2442 48.2567 31.7306 48.9483 31.229 51.0314C30.5231 53.9628 27.2503 51.8216 25.5357 51.415C24.5017 51.1697 23.0664 50.9539 21.9981 50.8211C20.3857 50.621 17.5955 50.8055 16.2506 50.3804C14.3191 49.769 14.5116 46.9602 16.3925 46.4079V46.4069Z" fill="#6E91A0"/>
</svg>
