<svg width="102" height="102" viewBox="0 0 102 102" fill="none" xmlns="http://www.w3.org/2000/svg">
<path d="M0 3.21662C0.66432 1.58955 1.82593 0.262027 3.68059 0.029805L36.5217 0.0214844C38.291 0.260514 38.8404 2.703 37.5125 3.81873C37.3508 3.95413 36.4333 4.41176 36.3139 4.41176H4.37741V55.1965H21.788C21.8545 55.1965 22.7788 55.8122 22.8877 55.9446C24.0221 57.3296 23.1544 59.3901 21.3958 59.5838C15.8091 59.1012 9.16292 60.2207 3.70326 59.5565C1.79495 59.3243 0.705131 58.077 0 56.3924L0 3.21662Z" fill="#6E91A0"/>
<path d="M66.659 101.998H35.2198C33.3455 100.798 33.6682 97.3689 33.8194 95.3183C34.1262 91.1512 36.5938 87.273 40.5404 85.7147C43.8076 84.4243 53.6076 84.6126 57.4152 84.8607C63.3268 85.2458 67.6218 89.3758 68.0586 95.3183C68.2098 97.3705 68.5325 100.799 66.6582 101.998H66.659ZM63.6744 97.6163C63.8747 94.4053 62.8748 91.0089 59.6303 89.8145C57.0841 88.8773 48.318 89.0506 45.2594 89.2419C40.1119 89.5649 37.9549 92.5853 38.2051 97.6163H63.6744Z" fill="#6E91A0"/>
<path d="M0 93.634C1.37172 88.4933 5.07498 85.2301 10.4387 84.8633C13.9651 84.622 23.9087 84.4586 26.9174 85.5138C28.8885 86.2052 33.0172 88.5901 30.9472 91.0508C29.1167 93.2263 27.4684 90.4351 25.8049 89.814C23.388 88.9116 13.7603 89.019 10.8475 89.2566C8.53413 89.4449 6.29479 90.3965 5.13242 92.4986C5.00772 92.724 4.37741 94.2323 4.37741 94.3322V97.6181H27.7578C28.2037 97.6181 29.0933 98.2172 29.3601 98.6037C30.3055 99.9721 29.6019 101.119 28.4546 102H0V93.6355V93.634Z" fill="#6E91A0"/>
<path d="M100.685 101.998H73.4242C72.277 101.117 71.5734 99.9706 72.5188 98.6015C72.7856 98.2149 73.6751 97.6158 74.1211 97.6158H97.5015V94.3299C97.5015 94.2309 96.8712 92.7218 96.7465 92.4964C95.5312 90.299 93.2541 89.4102 90.8439 89.243C87.91 89.0395 78.1198 88.8966 75.8132 89.9487C74.3432 90.6189 73.3479 92.6045 71.4517 91.5244C70.5077 90.9865 70.2281 89.8103 70.4896 88.8012C70.7919 87.6348 73.8346 85.9079 74.9622 85.5123C77.9717 84.4571 87.9138 84.6205 91.441 84.8618C96.1675 85.1855 100.241 88.0168 101.533 92.6847C101.987 94.3254 102.118 98.603 101.888 100.312C101.772 101.177 101.202 101.425 100.686 101.996L100.685 101.998Z" fill="#6E91A0"/>
<path d="M31.8367 36.3762C32.4731 30.7121 37.8889 25.905 43.468 25.5132C47.6217 25.222 54.4735 25.191 58.6067 25.5147C63.588 25.9058 70.0408 31.1296 70.0408 36.3754V40.2589H76.5079C77.3785 40.2589 78.4434 41.2899 78.587 42.1613C78.7895 43.389 78.788 50.2997 78.5515 51.4653C78.4698 51.8677 78.1547 52.2868 77.9053 52.6105C75.8655 55.2626 72.3209 57.7187 70.1443 60.3767C69.7634 62.2201 70.2954 64.4554 70.0498 66.2572C69.7218 68.6611 65.9543 68.9659 65.6565 65.4584C65.3505 61.8518 65.352 55.1113 65.6565 51.5039C65.8145 49.631 67.1069 48.0463 69.0295 49.1378C69.2676 49.2732 70.0415 50.1219 70.0415 50.3163V54.1998C70.5192 53.6703 74.2201 50.4094 74.2201 50.1174V44.6409H27.6588V50.1174C27.6588 50.4094 31.3598 53.6703 31.8375 54.1998V50.3163C31.8375 50.1227 32.6106 49.2732 32.8494 49.1378C34.7721 48.047 36.0637 49.631 36.2224 51.5039C36.527 55.1113 36.5285 61.8518 36.2224 65.4584C35.9247 68.9659 32.1572 68.6611 31.8291 66.2572C31.5835 64.4554 32.1156 62.2209 31.7347 60.3767C29.5581 57.7187 26.0135 55.2626 23.9737 52.6105C23.7243 52.2868 23.4091 51.867 23.3275 51.4653C23.0902 50.2997 23.0895 43.3882 23.292 42.1613C23.4356 41.2899 24.5005 40.2589 25.3711 40.2589H31.8382C31.938 39.0169 31.7014 37.5918 31.8382 36.3754L31.8367 36.3762ZM65.6641 40.2597V36.7748C65.6641 36.4654 64.8071 34.4912 64.5766 34.0797C63.3447 31.8823 60.7335 30.1274 58.2107 29.8959C54.6246 29.5661 47.2544 29.5661 43.6682 29.8959C41.2075 30.1221 38.6159 31.8271 37.3704 33.9488C37.1218 34.3724 36.2149 36.4435 36.2149 36.7756V40.2604H65.6641V40.2597Z" fill="#6E91A0"/>
<path d="M65.5637 4.41225C63.1921 4.02043 62.886 0.516673 65.3559 0.0219727L98.197 0.0302933C99.9202 0.224694 101.343 1.57945 101.79 3.20576L101.886 55.7023C101.732 57.7121 100.176 59.3127 98.1743 59.5555C92.7132 60.2189 86.07 59.1009 80.4818 59.5827C78.7231 59.3891 77.8555 57.3294 78.9899 55.9436C79.098 55.8112 80.0231 55.1955 80.0896 55.1955H97.5002V4.41225H65.5637Z" fill="#6E91A0"/>
<path d="M49.3031 0.0874229C58.4985 -1.01847 64.9527 8.58735 59.8974 16.467C54.8428 24.3452 42.6644 22.1954 40.5195 13.1486C39.1289 7.28403 43.2032 0.821153 49.3023 0.0881794L49.3031 0.0874229ZM49.6938 4.46031C42.4928 5.58738 43.3423 17.3059 51.2287 16.9617C59.7107 16.5911 58.8499 3.02613 49.6938 4.46031Z" fill="#6E91A0"/>
<path d="M15.472 63.8121C28.0616 62.1048 28.6994 80.6697 17.18 80.874C6.40506 81.0646 5.60848 65.1502 15.472 63.8121ZM16.0645 68.1895C10.8399 69.0783 12.4489 77.818 18.155 76.2537C22.9639 74.936 21.6496 67.2394 16.0645 68.1895Z" fill="#6E91A0"/>
<path d="M49.2959 63.8082C61.8288 61.8567 62.8982 80.7718 51.0175 80.8678C40.4179 80.9533 39.6024 65.3173 49.2959 63.8082ZM50.091 68.1902C45.2956 69.0086 45.9229 76.5298 51.0077 76.4329C56.8445 76.321 56.1847 67.1509 50.091 68.1902Z" fill="#6E91A0"/>
<path d="M83.3208 63.8084C92.6682 62.462 97.2035 74.2629 89.6874 79.3416C82.7177 84.0503 73.8805 76.8779 76.9671 69.0005C77.9224 66.5625 80.7006 64.1866 83.3208 63.8092V63.8084ZM83.9179 68.1904C79.4982 68.9513 79.7234 76.4097 84.8989 76.4301C90.6238 76.4535 90.348 67.083 83.9179 68.1904Z" fill="#6E91A0"/>
<path d="M44.5724 58.0839C44.1734 59.9258 40.7656 60.3025 40.2819 57.5983C40.0401 56.2451 40.0371 51.972 40.3205 50.643C40.5578 49.5318 41.3468 48.8677 42.4729 48.814C47.9159 49.2179 54.0475 48.3102 59.4059 48.814C60.8237 48.9471 61.4918 49.7519 61.6618 51.1362C61.8289 52.497 61.844 56.8661 61.4721 58.0726C61.0587 59.4145 59.5585 59.9667 58.3183 59.2624C58.0803 59.127 57.3063 58.2783 57.3063 58.0839V53.205H44.5717C44.3653 54.6036 44.8505 56.7973 44.5717 58.0839H44.5724Z" fill="#6E91A0"/>
</svg>
