<svg width="107" height="103" viewBox="0 0 107 103" fill="none" xmlns="http://www.w3.org/2000/svg">
<path d="M22.737 6.15917H27.4095C29.1301 6.15917 30.5239 4.77978 30.5239 3.08037C30.5239 1.38097 29.1301 0 27.4095 0H22.737C21.0163 0 19.6226 1.37939 19.6226 3.0788C19.6226 4.77821 21.0179 6.1576 22.737 6.1576V6.15917Z" fill="#6E91A0"/>
<path d="M44.3278 6.15917H54.4781C56.1988 6.15917 57.5925 4.77978 57.5925 3.08037C57.5925 1.38097 56.1972 0 54.4781 0H44.3278C42.6071 0 41.2134 1.37939 41.2134 3.0788C41.2134 4.77821 42.6087 6.1576 44.3278 6.1576V6.15917Z" fill="#6E91A0"/>
<path d="M71.3942 6.15906H81.5445C83.2652 6.15906 84.6589 4.77967 84.6589 3.08026C84.6589 1.38085 83.2636 0.00146484 81.5445 0.00146484H71.3942C69.6736 0.00146484 68.2798 1.38085 68.2798 3.08026C68.2798 4.77967 69.6751 6.15906 71.3942 6.15906Z" fill="#6E91A0"/>
<path d="M103.134 0H98.4611C96.7404 0 95.3467 1.37939 95.3467 3.0788C95.3467 4.77821 96.742 6.1576 98.4611 6.1576H100.019V7.69778C100.019 9.39877 101.415 10.7766 103.134 10.7766C104.853 10.7766 106.248 9.39719 106.248 7.69778V3.0788C106.248 1.37781 104.853 0 103.134 0Z" fill="#6E91A0"/>
<path d="M103.133 48.1006C101.413 48.1006 100.019 49.48 100.019 51.1794V61.2135C100.019 62.9144 101.414 64.2923 103.133 64.2923C104.853 64.2923 106.248 62.9129 106.248 61.2135V51.1794C106.248 49.4784 104.853 48.1006 103.133 48.1006Z" fill="#6E91A0"/>
<path d="M103.133 21.3418C101.413 21.3418 100.019 22.7212 100.019 24.4206V34.4547C100.019 36.1557 101.414 37.5335 103.133 37.5335C104.853 37.5335 106.248 36.1541 106.248 34.4547V24.4206C106.248 22.7196 104.853 21.3418 103.133 21.3418Z" fill="#6E91A0"/>
<path d="M103.133 74.8579C101.413 74.8579 100.019 76.2373 100.019 77.9367V82.5557C100.019 84.2567 101.414 85.6345 103.133 85.6345C104.853 85.6345 106.248 84.2551 106.248 82.5557V77.9367C106.248 76.2357 104.853 74.8579 103.133 74.8579Z" fill="#6E91A0"/>
<path d="M79.9186 38.4666C79.7655 38.8481 79.547 39.2201 79.2647 39.5827L73.0438 47.6683V50.7124H83.765V47.4586H77.568L82.0315 41.8875C82.5466 41.238 82.9485 40.5128 83.2339 39.712C83.521 38.9111 83.6645 38.104 83.6645 37.2906V37.2779C83.6645 36.2927 83.454 35.4493 83.0346 34.7509C82.6152 34.0525 82.0044 33.5213 81.2023 33.1555C80.4002 32.7898 79.4338 32.6069 78.3031 32.6069C77.2554 32.6069 76.3337 32.8182 75.5347 33.2422C74.7374 33.6647 74.1027 34.2795 73.6339 35.0851C73.165 35.8907 72.8923 36.8523 72.8174 37.9684V37.981H76.3209V37.9684C76.3959 37.2953 76.608 36.7751 76.9572 36.4093C77.3065 36.0436 77.7641 35.8607 78.3287 35.8607C78.8932 35.8607 79.3588 35.9916 79.6746 36.2548C79.9903 36.5181 80.1482 36.8917 80.1482 37.3757V37.4009C80.1482 37.7288 80.0717 38.0851 79.917 38.4666H79.9186Z" fill="#6E91A0"/>
<path d="M38.1085 52.0766C38.1085 50.8217 38.4498 49.8475 39.1355 49.1538C39.8196 48.4618 40.7892 48.1149 42.0426 48.1149C43.3949 48.1149 44.4427 48.5185 45.1842 49.3257C45.9257 50.1328 46.2973 51.2789 46.2973 52.7623V67.4106H53.0764V52.7371C53.0764 52.674 53.0732 52.6125 53.0732 52.5495L53.0764 52.5653C53.0764 51.1465 53.4272 50.0508 54.1273 49.2752C54.8273 48.5012 55.8304 48.1134 57.1333 48.1134C58.4361 48.1134 59.4711 48.5169 60.1887 49.3241C60.9063 50.1312 61.2651 51.2773 61.2651 52.7607V67.4091H68.0442V52.7355C68.0442 50.4039 67.7013 48.4066 67.0172 46.7434C66.3331 45.0803 65.3348 43.8176 64.0239 42.9521C62.7131 42.0882 61.1328 41.6562 59.2861 41.6562C57.7026 41.6562 56.2642 42.0929 54.9693 42.9647C53.7381 43.7939 52.7287 44.9636 51.9377 46.4628C51.2664 44.94 50.3255 43.7671 49.1056 42.9521C47.8107 42.0882 46.2558 41.6562 44.4427 41.6562C42.9086 41.6562 41.5722 42.0646 40.4352 42.8796C39.5437 43.5196 38.7687 44.3914 38.1101 45.4917V42.0236H31.3311V67.4091H38.1101V52.075L38.1085 52.0766Z" fill="#6E91A0"/>
<path d="M103.462 95.0297C103.462 94.995 103.459 94.9619 103.456 94.9272C103.456 94.9115 103.453 94.8957 103.451 94.8799C103.448 94.8579 103.445 94.8358 103.441 94.8137C103.437 94.7775 103.432 94.7396 103.424 94.7034C103.421 94.686 103.418 94.6687 103.414 94.6514C103.413 94.6435 103.41 94.634 103.408 94.6261C103.405 94.6135 103.402 94.6009 103.398 94.5883C103.39 94.5552 103.382 94.5205 103.373 94.4874C103.36 94.4433 103.344 94.4007 103.328 94.3566C103.319 94.3298 103.309 94.303 103.298 94.2762C103.279 94.2273 103.257 94.18 103.233 94.1327C103.223 94.1122 103.213 94.0917 103.202 94.0712C103.175 94.0192 103.145 93.9672 103.113 93.9167C103.105 93.9057 103.1 93.8931 103.092 93.8821C103.091 93.8789 103.087 93.8757 103.086 93.8726C103.078 93.86 103.072 93.8489 103.064 93.8363C103.052 93.8206 103.04 93.8064 103.028 93.7906C103.013 93.7685 102.997 93.7465 102.979 93.726C102.968 93.7118 102.958 93.6976 102.947 93.685C102.941 93.6771 102.934 93.6692 102.928 93.6598C102.912 93.6409 102.895 93.6235 102.879 93.6062C102.864 93.5904 102.85 93.5746 102.836 93.5589C102.821 93.5431 102.808 93.5274 102.792 93.5132C102.786 93.5069 102.78 93.5006 102.773 93.4942C102.759 93.4801 102.743 93.4674 102.729 93.4548C102.711 93.4375 102.692 93.4217 102.673 93.4044C102.657 93.3902 102.641 93.3744 102.623 93.3602C102.615 93.3524 102.606 93.3461 102.596 93.3398C102.585 93.3303 102.574 93.3224 102.563 93.3145C102.531 93.2909 102.499 93.2657 102.467 93.2436C102.459 93.2389 102.453 93.2326 102.445 93.2262C102.432 93.2168 102.418 93.2089 102.405 93.201C102.402 93.1995 102.4 93.1979 102.397 93.1963L93.6899 87.6409C92.6055 86.9488 91.1591 87.2578 90.4606 88.3298C89.7622 89.4018 90.0731 90.8316 91.1575 91.5221L93.2003 92.8258H11.0431V10.9185L12.3619 12.9379C12.8084 13.6221 13.5595 13.9957 14.3266 13.9957C14.7604 13.9957 15.1989 13.8759 15.5912 13.6268C16.6756 12.9347 16.9865 11.5065 16.2881 10.4345L10.67 1.8271C10.67 1.8271 10.6636 1.81764 10.6604 1.81291C10.654 1.80346 10.6492 1.794 10.6428 1.78612C10.6189 1.74986 10.5918 1.71675 10.5647 1.68207C10.5488 1.66158 10.5344 1.64108 10.5185 1.62216C10.5153 1.61744 10.5121 1.61271 10.5089 1.60955C10.4834 1.57802 10.4547 1.54965 10.426 1.5197C10.4052 1.49605 10.3845 1.4724 10.3622 1.45033C10.3606 1.44876 10.3574 1.44718 10.3558 1.44403C10.3319 1.42038 10.3064 1.39831 10.2808 1.37624C10.2474 1.34629 10.2155 1.31633 10.182 1.28954C10.1612 1.27219 10.1389 1.25801 10.1182 1.24067C10.0767 1.20914 10.0353 1.17918 9.99221 1.15081C9.98583 1.14765 9.98104 1.14293 9.97466 1.1382C9.95712 1.12716 9.93958 1.11928 9.92204 1.10824C9.88058 1.08302 9.83752 1.0578 9.79446 1.03573C9.76416 1.01996 9.73227 1.00577 9.70197 0.991587C9.67486 0.978975 9.64775 0.964787 9.62064 0.953752C9.61107 0.950599 9.60151 0.947446 9.59194 0.942717C9.55366 0.926953 9.51539 0.914341 9.47552 0.900153C9.4532 0.892271 9.43087 0.882812 9.40695 0.876506C9.39738 0.873353 9.38782 0.871777 9.37984 0.868624C9.33838 0.856013 9.29532 0.844977 9.25227 0.835519C9.22994 0.830789 9.20762 0.824484 9.18369 0.819754C9.17572 0.819754 9.16775 0.816601 9.16137 0.815025C9.11831 0.807143 9.07685 0.800837 9.03379 0.794531C9.00668 0.791378 8.97957 0.786649 8.95246 0.783496C8.94768 0.783496 8.9413 0.783496 8.93652 0.783496C8.89665 0.780343 8.85678 0.77719 8.81691 0.775614C8.78183 0.774037 8.74834 0.772461 8.71326 0.772461C8.71326 0.772461 8.71007 0.772461 8.70848 0.772461C8.70688 0.772461 8.70529 0.772461 8.70369 0.772461C8.6702 0.772461 8.63512 0.772461 8.60163 0.775614C8.56017 0.77719 8.51871 0.780343 8.47724 0.783496C8.47405 0.783496 8.46927 0.783496 8.46608 0.783496C8.43897 0.786649 8.41186 0.789802 8.38475 0.794531C8.3401 0.800837 8.29385 0.807143 8.2492 0.816601C8.24442 0.816601 8.24123 0.816601 8.23644 0.818178C8.21252 0.822907 8.1886 0.829213 8.16628 0.835519C8.12163 0.846554 8.07697 0.857589 8.03232 0.870201C8.00202 0.879659 7.97172 0.889118 7.94143 0.900153C7.90156 0.914341 7.86169 0.926953 7.82342 0.944293C7.78674 0.958481 7.75166 0.975822 7.71498 0.991587C7.68308 1.00577 7.65279 1.01996 7.62089 1.03573C7.57624 1.0578 7.53478 1.08302 7.49172 1.10982C7.47418 1.11928 7.45664 1.12874 7.44069 1.13977C7.43431 1.14293 7.42953 1.14765 7.42474 1.15238C7.38009 1.18076 7.33863 1.21229 7.29557 1.24382C7.27484 1.25958 7.25252 1.27377 7.23338 1.29111C7.1983 1.31949 7.16481 1.34944 7.13132 1.37939C7.1058 1.40304 7.08029 1.42511 7.05477 1.44876C7.03085 1.4724 7.00853 1.49763 6.9862 1.52285C6.9559 1.55595 6.92401 1.58906 6.8953 1.62374C6.87936 1.64424 6.86341 1.66473 6.84906 1.68522C6.81716 1.72779 6.78527 1.76877 6.75657 1.81291C6.75338 1.81922 6.74859 1.82395 6.7454 1.82868L1.12409 10.4345C0.424021 11.5065 0.736582 12.9363 1.82098 13.6268C2.21327 13.8775 2.65181 13.9957 3.08557 13.9957C3.85262 13.9957 4.60372 13.6221 5.05024 12.9379L6.37065 10.9153V95.1353C6.37065 96.4107 7.41677 97.4448 8.70688 97.4448H93.2035L91.1575 98.7501C90.0731 99.4422 89.7622 100.87 90.4606 101.942C90.9072 102.627 91.6583 103 92.4253 103C92.8591 103 93.2976 102.88 93.6899 102.631L102.397 97.0775C102.405 97.0728 102.413 97.0665 102.421 97.0602C102.43 97.0539 102.44 97.0476 102.45 97.0413C102.477 97.0239 102.501 97.0034 102.528 96.9845C102.555 96.964 102.584 96.9435 102.611 96.923C102.625 96.912 102.638 96.8994 102.652 96.8868C102.654 96.8852 102.657 96.8836 102.658 96.8804C102.682 96.86 102.708 96.8395 102.732 96.8174C102.791 96.7622 102.847 96.7055 102.898 96.6471C102.904 96.6408 102.91 96.6345 102.915 96.6282C102.977 96.5557 103.032 96.4816 103.084 96.4028C103.087 96.3981 103.091 96.3933 103.094 96.3886C103.105 96.3728 103.113 96.3555 103.123 96.3382C103.143 96.305 103.166 96.2719 103.185 96.2373C103.19 96.2278 103.194 96.2183 103.199 96.2089C103.215 96.1789 103.228 96.1506 103.242 96.1206C103.255 96.0938 103.269 96.0686 103.28 96.0402C103.285 96.0276 103.29 96.015 103.295 96.0024C103.309 95.9677 103.322 95.9314 103.335 95.8968C103.343 95.8747 103.351 95.8542 103.359 95.8337C103.363 95.8195 103.367 95.8053 103.371 95.7911C103.382 95.7533 103.392 95.7139 103.402 95.676C103.406 95.6555 103.413 95.6366 103.418 95.6161C103.421 95.602 103.422 95.5862 103.426 95.572C103.434 95.5342 103.438 95.4963 103.443 95.4585C103.446 95.4349 103.451 95.4128 103.453 95.3891C103.453 95.3749 103.456 95.3608 103.456 95.3466C103.459 95.3119 103.461 95.2772 103.462 95.2425C103.462 95.2141 103.465 95.1842 103.465 95.1558C103.465 95.1495 103.465 95.1416 103.465 95.1353C103.465 95.129 103.465 95.1211 103.465 95.1148C103.465 95.0864 103.464 95.0581 103.462 95.0297Z" fill="#6E91A0"/>
</svg>
