<svg width="49" height="38" viewBox="0 0 49 38" fill="none" xmlns="http://www.w3.org/2000/svg">
<path d="M42.2538 0.698242H6.74623C3.44511 0.698242 0.769531 3.39385 0.769531 6.71911V24.9743C0.769531 28.2996 3.44511 30.9957 6.74623 30.9957H13.9577V36.4054C13.9577 37.6261 15.3427 38.3211 16.3102 37.5855L24.9797 30.9955H42.2538C45.5543 30.9955 48.2305 28.2993 48.2305 24.974V6.71911C48.2305 3.39385 45.5543 0.698242 42.2538 0.698242ZM13.9661 18.8853C12.3006 18.8853 10.9497 17.5251 10.9497 15.8471C10.9497 14.1692 12.3006 12.8082 13.9661 12.8082C15.6316 12.8082 16.9817 14.1692 16.9817 15.8471C16.9817 17.5251 15.6316 18.8853 13.9661 18.8853ZM24.4999 18.8853C22.8344 18.8853 21.4843 17.5251 21.4843 15.8471C21.4843 14.1692 22.8344 12.8082 24.4999 12.8082C26.1654 12.8082 27.5163 14.1692 27.5163 15.8471C27.5163 17.5251 26.1654 18.8853 24.4999 18.8853ZM35.0341 18.8853C33.3686 18.8853 32.0186 17.5251 32.0186 15.8471C32.0186 14.1692 33.3686 12.8082 35.0341 12.8082C36.6996 12.8082 38.0497 14.1692 38.0497 15.8471C38.0497 17.5251 36.6996 18.8853 35.0341 18.8853Z" fill="#2A2A2A"/>
</svg>
