<svg width="236" height="103" viewBox="0 0 236 103" fill="none" xmlns="http://www.w3.org/2000/svg">
<path d="M207.557 79.4192V23.51H161.43V0H235.598V102.929H161.43V79.4192H207.557Z" fill="white"/>
<mask id="mask0_548_3183" style="mask-type:luminance" maskUnits="userSpaceOnUse" x="161" y="0" width="75" height="103">
<path d="M207.557 79.4192V23.51H161.43V0H235.598V102.929H161.43V79.4192H207.557Z" fill="white"/>
</mask>
<g mask="url(#mask0_548_3183)">
<g opacity="0.58">
<path d="M-1.20111 -38.2682H238.927V182.468H-3.58643V-38.2682H-1.20111Z" stroke="#433E3E" stroke-width="0.35"/>
<path d="M-1.20123 -36.0718L70.1181 -37.4103L165.222 -34.7161L236.541 -36.0546H238.927V182.485H-3.58655V-36.0718H-1.20123Z" stroke="#433E3E" stroke-width="0.35"/>
<path d="M-1.20123 -33.8752L70.1181 -36.5695L165.222 -31.1982L236.541 -33.8924H238.927V182.451H-3.58655V-33.8752H-1.20123Z" stroke="#433E3E" stroke-width="0.35"/>
<path d="M-1.20123 -31.6787L70.1181 -35.7114L165.222 -27.646L236.541 -31.6787H238.927V182.468H-3.58655V-31.6787H-1.20123Z" stroke="#433E3E" stroke-width="0.35"/>
<path d="M-1.20123 -29.4821L70.1181 -34.8534L165.222 -24.0937L236.541 -29.465H238.927V182.485H-3.58655V-29.4821H-1.20123Z" stroke="#433E3E" stroke-width="0.35"/>
<path d="M-1.20123 -27.2856L70.1181 -34.0126L165.222 -20.5587L236.541 -27.2856H238.927V182.468H-3.58655V-27.2856H-1.20123Z" stroke="#433E3E" stroke-width="0.35"/>
<path d="M-1.20123 -25.0891L70.1181 -33.1545L165.222 -17.0236L236.541 -25.0891H238.927V182.468H-3.58655V-25.0891H-1.20123Z" stroke="#433E3E" stroke-width="0.35"/>
<path d="M-1.20123 -22.8925L70.1181 -32.3137L165.222 -13.4885L236.541 -22.9097H238.927V182.451H-3.58655V-22.8925H-1.20123Z" stroke="#433E3E" stroke-width="0.35"/>
<path d="M-1.20123 -20.696L70.1181 -31.4556L165.222 -9.93628L236.541 -20.696H238.927V182.468H-3.58655V-20.696H-1.20123Z" stroke="#433E3E" stroke-width="0.35"/>
<path d="M-1.20123 -18.4994L70.1181 -30.5976L165.222 -6.40119L236.541 -18.4994H238.927V182.468H-3.58655V-18.4994H-1.20123Z" stroke="#433E3E" stroke-width="0.35"/>
<path d="M-1.20123 -16.3029L70.1181 -29.7568L165.222 -2.84897L236.541 -16.3029H238.927V182.468H-3.58655V-16.3029H-1.20123Z" stroke="#433E3E" stroke-width="0.35"/>
<path d="M-1.20123 -14.1063L70.1181 -28.8987L165.222 0.686108L236.541 -14.1063H238.927V182.468H-3.58655V-14.1063H-1.20123Z" stroke="#433E3E" stroke-width="0.35"/>
<path d="M-1.20123 -11.9098L70.1181 -28.0407L165.222 4.22117L236.541 -11.9098H238.927V182.468H-3.58655V-11.9098H-1.20123Z" stroke="#433E3E" stroke-width="0.35"/>
<path d="M-1.20123 -9.71323L70.1181 -27.1999L165.222 7.7734L236.541 -9.71323H238.927V182.468H-3.58655V-9.71323H-1.20123Z" stroke="#433E3E" stroke-width="0.35"/>
<path d="M-1.20123 -7.51667L70.1181 -26.3418L165.222 11.3085L236.541 -7.51667H238.927V182.468H-3.58655V-7.51667H-1.20123Z" stroke="#433E3E" stroke-width="0.35"/>
<path d="M-1.20123 -5.32012L70.1181 -25.4838L165.222 14.8607L236.541 -5.30296H238.927V182.485H-3.58655V-5.32012H-1.20123Z" stroke="#433E3E" stroke-width="0.35"/>
<path d="M-1.20123 -3.12358L70.1181 -24.6429L165.222 18.3958L236.541 -3.12358H238.927V182.468H-3.58655V-3.12358H-1.20123Z" stroke="#433E3E" stroke-width="0.35"/>
<path d="M-1.20123 -0.927023L70.1181 -23.7849L165.222 21.9309L236.541 -0.927023H238.927V182.468H-3.58655V-0.927023H-1.20123Z" stroke="#433E3E" stroke-width="0.35"/>
<path d="M-1.20123 1.26951L70.1181 -22.9441L165.222 25.4659L236.541 1.26951H238.927V182.468H-3.58655V1.26951H-1.20123Z" stroke="#433E3E" stroke-width="0.35"/>
<path d="M-1.20123 3.46607L70.1181 -22.086L165.222 29.0182L236.541 3.46607H238.927V182.468H-3.58655V3.46607H-1.20123Z" stroke="#433E3E" stroke-width="0.35"/>
<path d="M-1.20123 5.66263L70.1181 -21.228L165.222 32.5533L236.541 5.66263H238.927V182.468H-3.58655V5.66263H-1.20123Z" stroke="#433E3E" stroke-width="0.35"/>
<path d="M-1.20123 7.85916L70.1181 -20.3871L165.222 36.0883L236.541 7.84201H238.927V182.451H-3.58655V7.85916H-1.20123Z" stroke="#433E3E" stroke-width="0.35"/>
<path d="M-1.20123 10.0557L70.1181 -19.5291L165.222 39.6405L236.541 10.0557H238.927V182.468H-3.58655V10.0557H-1.20123Z" stroke="#433E3E" stroke-width="0.35"/>
<path d="M-1.20123 12.2523L70.1181 -18.6711L165.222 43.1928L236.541 12.2694H238.927V182.485H-3.58655V12.2523H-1.20123Z" stroke="#433E3E" stroke-width="0.35"/>
<path d="M-1.20123 14.4488L70.1181 -17.8302L165.222 46.7107L236.541 14.4316H238.927V182.451H-3.58655V14.4488H-1.20123Z" stroke="#433E3E" stroke-width="0.35"/>
<path d="M-1.20123 16.6454L70.1181 -16.9722L165.222 50.2629L236.541 16.6454H238.927V182.468H-3.58655V16.6454H-1.20123Z" stroke="#433E3E" stroke-width="0.35"/>
<path d="M-1.20123 18.8419L70.1181 -16.1142L165.222 53.8152L236.541 18.8591H238.927V182.485H-3.58655V18.8419H-1.20123Z" stroke="#433E3E" stroke-width="0.35"/>
<path d="M-1.20123 21.0385L70.1181 -15.2733L165.222 57.3502L236.541 21.0385H238.927V182.468H-3.58655V21.0385H-1.20123Z" stroke="#433E3E" stroke-width="0.35"/>
<path d="M-1.20123 23.235L70.1181 -14.4153L165.222 60.8853L236.541 23.235H238.927V182.468H-3.58655V23.235H-1.20123Z" stroke="#433E3E" stroke-width="0.35"/>
<path d="M-1.20123 25.4315L70.1181 -13.5744L165.222 64.4204L236.541 25.4315H238.927V182.468H-3.58655V25.4315H-1.20123Z" stroke="#433E3E" stroke-width="0.35"/>
<path d="M-1.20123 27.6281L70.1181 -12.7164L165.222 67.9726L236.541 27.6281H238.927V182.468H-3.58655V27.6281H-1.20123Z" stroke="#433E3E" stroke-width="0.35"/>
<path d="M-1.20123 29.8246L70.1181 -11.8584L165.222 71.5077L236.541 29.8246H238.927V182.468H-3.58655V29.8246H-1.20123Z" stroke="#433E3E" stroke-width="0.35"/>
<path d="M-1.20123 32.0212L70.1181 -11.0175L165.222 75.0428L236.541 32.004H238.927V182.451H-3.58655V32.0212H-1.20123Z" stroke="#433E3E" stroke-width="0.35"/>
<path d="M-1.20123 34.2177L70.1181 -10.1595L165.222 78.595L236.541 34.2177H238.927V182.468H-3.58655V34.2177H-1.20123Z" stroke="#433E3E" stroke-width="0.35"/>
<path d="M-1.20123 36.4143L70.1181 -9.30148L165.222 82.1472L236.541 36.4315H238.927V182.485H-3.58655V36.4143H-1.20123Z" stroke="#433E3E" stroke-width="0.35"/>
<path d="M-1.20123 38.6112L70.1181 -8.46022L165.222 85.6656L236.541 38.5941H238.927V182.451H-3.58655V38.6112H-1.20123Z" stroke="#433E3E" stroke-width="0.35"/>
<path d="M-1.20123 40.8078L70.1181 -7.60219L165.222 89.2178L236.541 40.8078H238.927V182.468H-3.58655V40.8078H-1.20123Z" stroke="#433E3E" stroke-width="0.35"/>
<path d="M-1.20123 43.0043L70.1181 -6.76134L165.222 92.7529L236.541 43.0043H238.927V182.468H-3.58655V43.0043H-1.20123Z" stroke="#433E3E" stroke-width="0.35"/>
<path d="M-1.20123 45.2009L70.1181 -5.90331L165.222 96.3051L236.541 45.2009H238.927V182.468H-3.58655V45.2009H-1.20123Z" stroke="#433E3E" stroke-width="0.35"/>
<path d="M-1.20123 47.3975L70.1181 -5.04527L165.222 99.8402L236.541 47.3975H238.927V182.468H-3.58655V47.3975H-1.20123Z" stroke="#433E3E" stroke-width="0.35"/>
<path d="M-1.20123 49.594L70.1181 -4.20442L165.222 103.375L236.541 49.594H238.927V182.468H-3.58655V49.594H-1.20123Z" stroke="#433E3E" stroke-width="0.35"/>
<path d="M-1.20123 51.7905L70.1181 -3.34641L165.222 106.927L236.541 51.7905H238.927V182.468H-3.58655V51.7905H-1.20123Z" stroke="#433E3E" stroke-width="0.35"/>
<path d="M-1.20123 53.9871L70.1181 -2.48837L165.222 110.463L236.541 53.9871H238.927V182.468H-3.58655V53.9871H-1.20123Z" stroke="#433E3E" stroke-width="0.35"/>
<path d="M-1.20123 56.1836L70.1181 -1.64752L165.222 113.998L236.541 56.1665H238.927V182.468H-3.58655V56.1836H-1.20123Z" stroke="#433E3E" stroke-width="0.35"/>
<path d="M-1.20123 58.3802L70.1181 -0.78949L165.222 117.55L236.541 58.3802H238.927V182.485H-3.58655V58.3802H-1.20123Z" stroke="#433E3E" stroke-width="0.35"/>
<path d="M-1.20123 60.5767L70.1181 0.0685425L165.222 121.102L236.541 60.5939H238.927V182.503H-3.58655V60.5767H-1.20123Z" stroke="#433E3E" stroke-width="0.35"/>
<path d="M-1.20123 62.7733L70.1181 0.909393L165.222 124.62L236.541 62.7561H238.927V182.468H-3.58655V62.7733H-1.20123Z" stroke="#433E3E" stroke-width="0.35"/>
<path d="M-1.20123 64.9698L70.1181 1.76743L165.222 128.172L236.541 64.9698H238.927V182.485H-3.58655V64.9698H-1.20123Z" stroke="#433E3E" stroke-width="0.35"/>
<path d="M-1.20123 67.1664L70.1181 2.60828L165.222 131.707L236.541 67.1664H238.927V182.485H-3.58655V67.1664H-1.20123Z" stroke="#433E3E" stroke-width="0.35"/>
<path d="M-1.20123 69.3629L70.1181 3.46631L165.222 135.242L236.541 69.3458H238.927V182.468H-3.58655V69.3629H-1.20123Z" stroke="#433E3E" stroke-width="0.35"/>
</g>
<g opacity="0.58">
<mask id="mask1_548_3183" style="mask-type:luminance" maskUnits="userSpaceOnUse" x="-2" y="-40" width="239" height="221">
<path d="M236.559 -39.3663H-1.20129V180.272H236.559V-39.3663Z" fill="white"/>
</mask>
<g mask="url(#mask1_548_3183)">
<path d="M236.542 179.174H-3.58643V-41.563H238.927V179.174H236.542Z" stroke="#433E3E" stroke-width="0.35"/>
<path d="M236.542 176.977L165.222 178.316L70.1183 175.621L-1.20111 176.96H-3.58643V-41.563H238.927V176.977H236.542Z" stroke="#433E3E" stroke-width="0.35"/>
<path d="M236.542 174.78L165.222 177.475L70.1183 172.103L-1.20111 174.798H-3.58643V-41.563H238.927V174.78H236.542Z" stroke="#433E3E" stroke-width="0.35"/>
<path d="M236.542 172.584L165.222 176.617L70.1183 168.551L-1.20111 172.584H-3.58643V-41.563H238.927V172.584H236.542Z" stroke="#433E3E" stroke-width="0.35"/>
<path d="M236.542 170.387L165.222 175.759L70.1183 164.999L-1.20111 170.387H-3.58643V-41.563H238.927V170.387H236.542Z" stroke="#433E3E" stroke-width="0.35"/>
<path d="M236.542 168.191L165.222 174.918L70.1183 161.464L-1.20111 168.191H-3.58643V-41.563H238.927V168.191H236.542Z" stroke="#433E3E" stroke-width="0.35"/>
<path d="M236.542 165.994L165.222 174.06L70.1183 157.929L-1.20111 165.994H-3.58643V-41.563H238.927V165.994H236.542Z" stroke="#433E3E" stroke-width="0.35"/>
<path d="M236.542 163.798L165.222 173.219L70.1183 154.394L-1.20111 163.798H-3.58643V-41.563H238.927V163.798H236.542Z" stroke="#433E3E" stroke-width="0.35"/>
<path d="M236.542 161.601L165.222 172.361L70.1183 150.841L-1.20111 161.601H-3.58643V-41.563H238.927V161.601H236.542Z" stroke="#433E3E" stroke-width="0.35"/>
<path d="M236.542 159.405L165.222 171.503L70.1183 147.289L-1.20111 159.405H-3.58643V-41.563H238.927V159.405H236.542Z" stroke="#433E3E" stroke-width="0.35"/>
<path d="M236.542 157.208L165.222 170.662L70.1183 143.771L-1.20111 157.208H-3.58643V-41.563H238.927V157.208H236.542Z" stroke="#433E3E" stroke-width="0.35"/>
<path d="M236.542 155.011L165.222 169.804L70.1183 140.219L-1.20111 155.011H-3.58643V-41.563H238.927V155.011H236.542Z" stroke="#433E3E" stroke-width="0.35"/>
<path d="M236.542 152.815L165.222 168.946L70.1183 136.667L-1.20111 152.815H-3.58643V-41.563H238.927V152.815H236.542Z" stroke="#433E3E" stroke-width="0.35"/>
<path d="M236.542 150.618L165.222 168.105L70.1183 133.149L-1.20111 150.618H-3.58643V-41.563H238.927V150.618H236.542Z" stroke="#433E3E" stroke-width="0.35"/>
<path d="M236.542 148.422L165.222 167.247L70.1183 129.597L-1.20111 148.422H-3.58643V-41.563H238.927V148.422H236.542Z" stroke="#433E3E" stroke-width="0.35"/>
<path d="M236.542 146.225L165.222 166.389L70.1183 126.044L-1.20111 146.225H-3.58643V-41.563H238.927V146.225H236.542Z" stroke="#433E3E" stroke-width="0.35"/>
<path d="M236.542 144.029L165.222 165.548L70.1183 122.509L-1.20111 144.029H-3.58643V-41.563H238.927V144.029H236.542Z" stroke="#433E3E" stroke-width="0.35"/>
<path d="M236.542 141.832L165.222 164.69L70.1183 118.974L-1.20111 141.832H-3.58643V-41.563H238.927V141.832H236.542Z" stroke="#433E3E" stroke-width="0.35"/>
<path d="M236.542 139.653L165.222 163.866L70.1183 115.456L-1.20111 139.653H-3.58643V-41.563H238.927V139.636H236.542V139.653Z" stroke="#433E3E" stroke-width="0.35"/>
<path d="M236.542 137.456L165.222 163.008L70.1183 111.904L-1.20111 137.456H-3.58643V-41.563H238.927V137.439H236.542V137.456Z" stroke="#433E3E" stroke-width="0.35"/>
<path d="M236.542 135.26L165.222 162.15L70.1183 108.369L-1.20111 135.26H-3.58643V-41.563H238.927V135.242H236.542V135.26Z" stroke="#433E3E" stroke-width="0.35"/>
<path d="M236.542 133.063L165.222 161.309L70.1183 104.834L-1.20111 133.063H-3.58643V-41.563H238.927V133.046H236.542V133.063Z" stroke="#433E3E" stroke-width="0.35"/>
<path d="M236.542 130.867L165.222 160.451L70.1183 101.282L-1.20111 130.867H-3.58643V-41.563H238.927V130.849H236.542V130.867Z" stroke="#433E3E" stroke-width="0.35"/>
<path d="M236.542 128.67L165.222 159.593L70.1183 97.7294L-1.20111 128.67H-3.58643V-41.563H238.927V128.653H236.542V128.67Z" stroke="#433E3E" stroke-width="0.35"/>
<path d="M236.542 126.473L165.222 158.752L70.1183 94.2115L-1.20111 126.473H-3.58643V-41.563H238.927V126.456H236.542V126.473Z" stroke="#433E3E" stroke-width="0.35"/>
<path d="M236.542 124.277L165.222 157.894L70.1183 90.6593L-1.20111 124.277H-3.58643V-41.563H238.927V124.26H236.542V124.277Z" stroke="#433E3E" stroke-width="0.35"/>
<path d="M236.542 122.08L165.222 157.036L70.1183 87.107L-1.20111 122.08H-3.58643V-41.563H238.927V122.063H236.542V122.08Z" stroke="#433E3E" stroke-width="0.35"/>
<path d="M236.542 119.884L165.222 156.196L70.1183 83.5719L-1.20111 119.884H-3.58643V-41.563H238.927V119.867H236.542V119.884Z" stroke="#433E3E" stroke-width="0.35"/>
<path d="M236.542 117.687L165.222 155.337L70.1183 80.0369L-1.20111 117.687H-3.58643V-41.563H238.927V117.67H236.542V117.687Z" stroke="#433E3E" stroke-width="0.35"/>
<path d="M236.542 115.491L165.222 154.479L70.1183 76.4846L-1.20111 115.491H-3.58643V-41.563H238.927V115.473H236.542V115.491Z" stroke="#433E3E" stroke-width="0.35"/>
<path d="M236.542 113.294L165.222 153.639L70.1183 72.9495L-1.20111 113.294H-3.58643V-41.563H238.927V113.277H236.542V113.294Z" stroke="#433E3E" stroke-width="0.35"/>
<path d="M236.542 111.098L165.222 152.781L70.1183 69.4145L-1.20111 111.098H-3.58643V-41.563H238.927V111.08H236.542V111.098Z" stroke="#433E3E" stroke-width="0.35"/>
<path d="M236.542 108.901L165.222 151.94L70.1183 65.8794L-1.20111 108.901H-3.58643V-41.563H238.927V108.901H236.542Z" stroke="#433E3E" stroke-width="0.35"/>
<path d="M236.542 106.704L165.222 151.082L70.1183 62.3272L-1.20111 106.704H-3.58643V-41.563H238.927V106.704H236.542Z" stroke="#433E3E" stroke-width="0.35"/>
<path d="M236.542 104.508L165.222 150.224L70.1183 58.7749L-1.20111 104.508H-3.58643V-41.563H238.927V104.508H236.542Z" stroke="#433E3E" stroke-width="0.35"/>
<path d="M236.542 102.311L165.222 149.383L70.1183 55.257L-1.20111 102.311H-3.58643V-41.563H238.927V102.311H236.542Z" stroke="#433E3E" stroke-width="0.35"/>
<path d="M236.542 100.115L165.222 148.525L70.1183 51.7048L-1.20111 100.115H-3.58643V-41.563H238.927V100.115H236.542Z" stroke="#433E3E" stroke-width="0.35"/>
<path d="M236.542 97.9182L165.222 147.667L70.1183 48.1525L-1.20111 97.9182H-3.58643V-41.563H238.927V97.9182H236.542Z" stroke="#433E3E" stroke-width="0.35"/>
<path d="M236.542 95.7216L165.222 146.826L70.1183 44.6174L-1.20111 95.7216H-3.58643V-41.563H238.927V95.7216H236.542Z" stroke="#433E3E" stroke-width="0.35"/>
<path d="M236.542 93.5251L165.222 145.968L70.1183 41.0824L-1.20111 93.5251H-3.58643V-41.563H238.927V93.5251H236.542Z" stroke="#433E3E" stroke-width="0.35"/>
<path d="M236.542 91.3285L165.222 145.11L70.1183 37.5301L-1.20111 91.3285H-3.58643V-41.563H238.927V91.3285H236.542Z" stroke="#433E3E" stroke-width="0.35"/>
<path d="M236.542 89.132L165.222 144.269L70.1183 33.995L-1.20111 89.132H-3.58643V-41.563H238.927V89.132H236.542Z" stroke="#433E3E" stroke-width="0.35"/>
<path d="M236.542 86.9354L165.222 143.411L70.1183 30.46L-1.20111 86.9354H-3.58643V-41.563H238.927V86.9354H236.542Z" stroke="#433E3E" stroke-width="0.35"/>
<path d="M236.542 84.7389L165.222 142.57L70.1183 26.9077L-1.20111 84.7389H-3.58643V-41.563H238.927V84.7389H236.542Z" stroke="#433E3E" stroke-width="0.35"/>
<path d="M236.542 82.5423L165.222 141.712L70.1183 23.3726L-1.20111 82.5423H-3.58643V-41.563H238.927V82.5423H236.542Z" stroke="#433E3E" stroke-width="0.35"/>
<path d="M236.542 80.3458L165.222 140.854L70.1183 19.8204L-1.20111 80.3458H-3.58643V-41.563H238.927V80.3458H236.542Z" stroke="#433E3E" stroke-width="0.35"/>
<path d="M236.542 78.1492L165.222 140.013L70.1183 16.2853L-1.20111 78.1492H-3.58643V-41.563H238.927V78.1492H236.542Z" stroke="#433E3E" stroke-width="0.35"/>
<path d="M236.542 75.9526L165.222 139.155L70.1183 12.7502L-1.20111 75.9526H-3.58643V-41.563H238.927V75.9526H236.542Z" stroke="#433E3E" stroke-width="0.35"/>
<path d="M236.542 73.7561L165.222 138.297L70.1183 9.198L-1.20111 73.7561H-3.58643V-41.563H238.927V73.7561H236.542Z" stroke="#433E3E" stroke-width="0.35"/>
<path d="M236.542 71.5595L165.222 137.456L70.1183 5.66292L-1.20111 71.5595H-3.58643V-41.563H238.927V71.5595H236.542Z" stroke="#433E3E" stroke-width="0.35"/>
</g>
<path d="M236.559 -39.3663H-1.20129V180.272H236.559V-39.3663Z" stroke="#433E3E" stroke-width="0.92" stroke-miterlimit="10"/>
</g>
</g>
<mask id="mask2_548_3183" style="mask-type:luminance" maskUnits="userSpaceOnUse" x="80" y="0" width="75" height="103">
<path d="M108.747 23.51V79.4192H154.891V102.929H80.7234V0H154.891V23.51H108.747Z" fill="white"/>
</mask>
<g mask="url(#mask2_548_3183)">
<path d="M108.747 23.5099V79.4191H154.891V102.929H80.7234V-6.10352e-05H154.891V23.5099H108.747Z" fill="white"/>
<g opacity="0.58">
<path d="M-1.20104 -38.2682H238.927V182.468H-3.58636V-38.2682H-1.20104Z" stroke="#433E3E" stroke-width="0.35"/>
<path d="M-1.20117 -36.0718L70.1182 -37.4103L165.222 -34.7161L236.541 -36.0546H238.927V182.485H-3.58649V-36.0718H-1.20117Z" stroke="#433E3E" stroke-width="0.35"/>
<path d="M-1.20117 -33.8752L70.1182 -36.5695L165.222 -31.1982L236.541 -33.8924H238.927V182.451H-3.58649V-33.8752H-1.20117Z" stroke="#433E3E" stroke-width="0.35"/>
<path d="M-1.20117 -31.6787L70.1182 -35.7114L165.222 -27.646L236.541 -31.6787H238.927V182.468H-3.58649V-31.6787H-1.20117Z" stroke="#433E3E" stroke-width="0.35"/>
<path d="M-1.20117 -29.4821L70.1182 -34.8534L165.222 -24.0937L236.541 -29.465H238.927V182.485H-3.58649V-29.4821H-1.20117Z" stroke="#433E3E" stroke-width="0.35"/>
<path d="M-1.20117 -27.2856L70.1182 -34.0126L165.222 -20.5587L236.541 -27.2856H238.927V182.468H-3.58649V-27.2856H-1.20117Z" stroke="#433E3E" stroke-width="0.35"/>
<path d="M-1.20117 -25.0891L70.1182 -33.1545L165.222 -17.0236L236.541 -25.0891H238.927V182.468H-3.58649V-25.0891H-1.20117Z" stroke="#433E3E" stroke-width="0.35"/>
<path d="M-1.20117 -22.8925L70.1182 -32.3137L165.222 -13.4885L236.541 -22.9097H238.927V182.451H-3.58649V-22.8925H-1.20117Z" stroke="#433E3E" stroke-width="0.35"/>
<path d="M-1.20117 -20.696L70.1182 -31.4556L165.222 -9.93628L236.541 -20.696H238.927V182.468H-3.58649V-20.696H-1.20117Z" stroke="#433E3E" stroke-width="0.35"/>
<path d="M-1.20117 -18.4994L70.1182 -30.5976L165.222 -6.40119L236.541 -18.4994H238.927V182.468H-3.58649V-18.4994H-1.20117Z" stroke="#433E3E" stroke-width="0.35"/>
<path d="M-1.20117 -16.3029L70.1182 -29.7568L165.222 -2.84897L236.541 -16.3029H238.927V182.468H-3.58649V-16.3029H-1.20117Z" stroke="#433E3E" stroke-width="0.35"/>
<path d="M-1.20117 -14.1063L70.1182 -28.8987L165.222 0.686108L236.541 -14.1063H238.927V182.468H-3.58649V-14.1063H-1.20117Z" stroke="#433E3E" stroke-width="0.35"/>
<path d="M-1.20117 -11.9098L70.1182 -28.0407L165.222 4.22117L236.541 -11.9098H238.927V182.468H-3.58649V-11.9098H-1.20117Z" stroke="#433E3E" stroke-width="0.35"/>
<path d="M-1.20117 -9.71323L70.1182 -27.1999L165.222 7.7734L236.541 -9.71323H238.927V182.468H-3.58649V-9.71323H-1.20117Z" stroke="#433E3E" stroke-width="0.35"/>
<path d="M-1.20117 -7.51667L70.1182 -26.3418L165.222 11.3085L236.541 -7.51667H238.927V182.468H-3.58649V-7.51667H-1.20117Z" stroke="#433E3E" stroke-width="0.35"/>
<path d="M-1.20117 -5.32012L70.1182 -25.4838L165.222 14.8607L236.541 -5.30296H238.927V182.485H-3.58649V-5.32012H-1.20117Z" stroke="#433E3E" stroke-width="0.35"/>
<path d="M-1.20117 -3.12358L70.1182 -24.6429L165.222 18.3958L236.541 -3.12358H238.927V182.468H-3.58649V-3.12358H-1.20117Z" stroke="#433E3E" stroke-width="0.35"/>
<path d="M-1.20117 -0.927023L70.1182 -23.7849L165.222 21.9309L236.541 -0.927023H238.927V182.468H-3.58649V-0.927023H-1.20117Z" stroke="#433E3E" stroke-width="0.35"/>
<path d="M-1.20117 1.26951L70.1182 -22.9441L165.222 25.4659L236.541 1.26951H238.927V182.468H-3.58649V1.26951H-1.20117Z" stroke="#433E3E" stroke-width="0.35"/>
<path d="M-1.20117 3.46607L70.1182 -22.086L165.222 29.0182L236.541 3.46607H238.927V182.468H-3.58649V3.46607H-1.20117Z" stroke="#433E3E" stroke-width="0.35"/>
<path d="M-1.20117 5.66263L70.1182 -21.228L165.222 32.5533L236.541 5.66263H238.927V182.468H-3.58649V5.66263H-1.20117Z" stroke="#433E3E" stroke-width="0.35"/>
<path d="M-1.20117 7.85916L70.1182 -20.3871L165.222 36.0883L236.541 7.84201H238.927V182.451H-3.58649V7.85916H-1.20117Z" stroke="#433E3E" stroke-width="0.35"/>
<path d="M-1.20117 10.0557L70.1182 -19.5291L165.222 39.6405L236.541 10.0557H238.927V182.468H-3.58649V10.0557H-1.20117Z" stroke="#433E3E" stroke-width="0.35"/>
<path d="M-1.20117 12.2523L70.1182 -18.6711L165.222 43.1928L236.541 12.2694H238.927V182.485H-3.58649V12.2523H-1.20117Z" stroke="#433E3E" stroke-width="0.35"/>
<path d="M-1.20117 14.4488L70.1182 -17.8302L165.222 46.7107L236.541 14.4316H238.927V182.451H-3.58649V14.4488H-1.20117Z" stroke="#433E3E" stroke-width="0.35"/>
<path d="M-1.20117 16.6454L70.1182 -16.9722L165.222 50.2629L236.541 16.6454H238.927V182.468H-3.58649V16.6454H-1.20117Z" stroke="#433E3E" stroke-width="0.35"/>
<path d="M-1.20117 18.8419L70.1182 -16.1142L165.222 53.8152L236.541 18.8591H238.927V182.485H-3.58649V18.8419H-1.20117Z" stroke="#433E3E" stroke-width="0.35"/>
<path d="M-1.20117 21.0385L70.1182 -15.2733L165.222 57.3502L236.541 21.0385H238.927V182.468H-3.58649V21.0385H-1.20117Z" stroke="#433E3E" stroke-width="0.35"/>
<path d="M-1.20117 23.235L70.1182 -14.4153L165.222 60.8853L236.541 23.235H238.927V182.468H-3.58649V23.235H-1.20117Z" stroke="#433E3E" stroke-width="0.35"/>
<path d="M-1.20117 25.4315L70.1182 -13.5744L165.222 64.4204L236.541 25.4315H238.927V182.468H-3.58649V25.4315H-1.20117Z" stroke="#433E3E" stroke-width="0.35"/>
<path d="M-1.20117 27.6281L70.1182 -12.7164L165.222 67.9726L236.541 27.6281H238.927V182.468H-3.58649V27.6281H-1.20117Z" stroke="#433E3E" stroke-width="0.35"/>
<path d="M-1.20117 29.8246L70.1182 -11.8584L165.222 71.5077L236.541 29.8246H238.927V182.468H-3.58649V29.8246H-1.20117Z" stroke="#433E3E" stroke-width="0.35"/>
<path d="M-1.20117 32.0212L70.1182 -11.0175L165.222 75.0428L236.541 32.004H238.927V182.451H-3.58649V32.0212H-1.20117Z" stroke="#433E3E" stroke-width="0.35"/>
<path d="M-1.20117 34.2177L70.1182 -10.1595L165.222 78.595L236.541 34.2177H238.927V182.468H-3.58649V34.2177H-1.20117Z" stroke="#433E3E" stroke-width="0.35"/>
<path d="M-1.20117 36.4143L70.1182 -9.30148L165.222 82.1472L236.541 36.4315H238.927V182.485H-3.58649V36.4143H-1.20117Z" stroke="#433E3E" stroke-width="0.35"/>
<path d="M-1.20117 38.6112L70.1182 -8.46022L165.222 85.6656L236.541 38.5941H238.927V182.451H-3.58649V38.6112H-1.20117Z" stroke="#433E3E" stroke-width="0.35"/>
<path d="M-1.20117 40.8078L70.1182 -7.60219L165.222 89.2178L236.541 40.8078H238.927V182.468H-3.58649V40.8078H-1.20117Z" stroke="#433E3E" stroke-width="0.35"/>
<path d="M-1.20117 43.0043L70.1182 -6.76134L165.222 92.7529L236.541 43.0043H238.927V182.468H-3.58649V43.0043H-1.20117Z" stroke="#433E3E" stroke-width="0.35"/>
<path d="M-1.20117 45.2009L70.1182 -5.90331L165.222 96.3051L236.541 45.2009H238.927V182.468H-3.58649V45.2009H-1.20117Z" stroke="#433E3E" stroke-width="0.35"/>
<path d="M-1.20117 47.3975L70.1182 -5.04527L165.222 99.8402L236.541 47.3975H238.927V182.468H-3.58649V47.3975H-1.20117Z" stroke="#433E3E" stroke-width="0.35"/>
<path d="M-1.20117 49.594L70.1182 -4.20442L165.222 103.375L236.541 49.594H238.927V182.468H-3.58649V49.594H-1.20117Z" stroke="#433E3E" stroke-width="0.35"/>
<path d="M-1.20117 51.7905L70.1182 -3.34641L165.222 106.927L236.541 51.7905H238.927V182.468H-3.58649V51.7905H-1.20117Z" stroke="#433E3E" stroke-width="0.35"/>
<path d="M-1.20117 53.9871L70.1182 -2.48837L165.222 110.463L236.541 53.9871H238.927V182.468H-3.58649V53.9871H-1.20117Z" stroke="#433E3E" stroke-width="0.35"/>
<path d="M-1.20117 56.1836L70.1182 -1.64752L165.222 113.998L236.541 56.1665H238.927V182.468H-3.58649V56.1836H-1.20117Z" stroke="#433E3E" stroke-width="0.35"/>
<path d="M-1.20117 58.3802L70.1182 -0.78949L165.222 117.55L236.541 58.3802H238.927V182.485H-3.58649V58.3802H-1.20117Z" stroke="#433E3E" stroke-width="0.35"/>
<path d="M-1.20117 60.5767L70.1182 0.0685425L165.222 121.102L236.541 60.5939H238.927V182.503H-3.58649V60.5767H-1.20117Z" stroke="#433E3E" stroke-width="0.35"/>
<path d="M-1.20117 62.7733L70.1182 0.909393L165.222 124.62L236.541 62.7561H238.927V182.468H-3.58649V62.7733H-1.20117Z" stroke="#433E3E" stroke-width="0.35"/>
<path d="M-1.20117 64.9698L70.1182 1.76743L165.222 128.172L236.541 64.9698H238.927V182.485H-3.58649V64.9698H-1.20117Z" stroke="#433E3E" stroke-width="0.35"/>
<path d="M-1.20117 67.1664L70.1182 2.60828L165.222 131.707L236.541 67.1664H238.927V182.485H-3.58649V67.1664H-1.20117Z" stroke="#433E3E" stroke-width="0.35"/>
<path d="M-1.20117 69.3629L70.1182 3.46631L165.222 135.242L236.541 69.3458H238.927V182.468H-3.58649V69.3629H-1.20117Z" stroke="#433E3E" stroke-width="0.35"/>
</g>
<g opacity="0.58">
<mask id="mask3_548_3183" style="mask-type:luminance" maskUnits="userSpaceOnUse" x="-2" y="-40" width="239" height="221">
<path d="M236.559 -39.3663H-1.20123V180.272H236.559V-39.3663Z" fill="white"/>
</mask>
<g mask="url(#mask3_548_3183)">
<path d="M236.542 179.174H-3.58636V-41.563H238.927V179.174H236.542Z" stroke="#433E3E" stroke-width="0.35"/>
<path d="M236.542 176.977L165.222 178.316L70.1183 175.621L-1.20104 176.96H-3.58636V-41.563H238.927V176.977H236.542Z" stroke="#433E3E" stroke-width="0.35"/>
<path d="M236.542 174.78L165.222 177.475L70.1183 172.103L-1.20104 174.798H-3.58636V-41.563H238.927V174.78H236.542Z" stroke="#433E3E" stroke-width="0.35"/>
<path d="M236.542 172.584L165.222 176.617L70.1183 168.551L-1.20104 172.584H-3.58636V-41.563H238.927V172.584H236.542Z" stroke="#433E3E" stroke-width="0.35"/>
<path d="M236.542 170.387L165.222 175.759L70.1183 164.999L-1.20104 170.387H-3.58636V-41.563H238.927V170.387H236.542Z" stroke="#433E3E" stroke-width="0.35"/>
<path d="M236.542 168.191L165.222 174.918L70.1183 161.464L-1.20104 168.191H-3.58636V-41.563H238.927V168.191H236.542Z" stroke="#433E3E" stroke-width="0.35"/>
<path d="M236.542 165.994L165.222 174.06L70.1183 157.929L-1.20104 165.994H-3.58636V-41.563H238.927V165.994H236.542Z" stroke="#433E3E" stroke-width="0.35"/>
<path d="M236.542 163.798L165.222 173.219L70.1183 154.394L-1.20104 163.798H-3.58636V-41.563H238.927V163.798H236.542Z" stroke="#433E3E" stroke-width="0.35"/>
<path d="M236.542 161.601L165.222 172.361L70.1183 150.841L-1.20104 161.601H-3.58636V-41.563H238.927V161.601H236.542Z" stroke="#433E3E" stroke-width="0.35"/>
<path d="M236.542 159.405L165.222 171.503L70.1183 147.289L-1.20104 159.405H-3.58636V-41.563H238.927V159.405H236.542Z" stroke="#433E3E" stroke-width="0.35"/>
<path d="M236.542 157.208L165.222 170.662L70.1183 143.771L-1.20104 157.208H-3.58636V-41.563H238.927V157.208H236.542Z" stroke="#433E3E" stroke-width="0.35"/>
<path d="M236.542 155.011L165.222 169.804L70.1183 140.219L-1.20104 155.011H-3.58636V-41.563H238.927V155.011H236.542Z" stroke="#433E3E" stroke-width="0.35"/>
<path d="M236.542 152.815L165.222 168.946L70.1183 136.667L-1.20104 152.815H-3.58636V-41.563H238.927V152.815H236.542Z" stroke="#433E3E" stroke-width="0.35"/>
<path d="M236.542 150.618L165.222 168.105L70.1183 133.149L-1.20104 150.618H-3.58636V-41.563H238.927V150.618H236.542Z" stroke="#433E3E" stroke-width="0.35"/>
<path d="M236.542 148.422L165.222 167.247L70.1183 129.597L-1.20104 148.422H-3.58636V-41.563H238.927V148.422H236.542Z" stroke="#433E3E" stroke-width="0.35"/>
<path d="M236.542 146.225L165.222 166.389L70.1183 126.044L-1.20104 146.225H-3.58636V-41.563H238.927V146.225H236.542Z" stroke="#433E3E" stroke-width="0.35"/>
<path d="M236.542 144.029L165.222 165.548L70.1183 122.509L-1.20104 144.029H-3.58636V-41.563H238.927V144.029H236.542Z" stroke="#433E3E" stroke-width="0.35"/>
<path d="M236.542 141.832L165.222 164.69L70.1183 118.974L-1.20104 141.832H-3.58636V-41.563H238.927V141.832H236.542Z" stroke="#433E3E" stroke-width="0.35"/>
<path d="M236.542 139.653L165.222 163.866L70.1183 115.456L-1.20104 139.653H-3.58636V-41.563H238.927V139.636H236.542V139.653Z" stroke="#433E3E" stroke-width="0.35"/>
<path d="M236.542 137.456L165.222 163.008L70.1183 111.904L-1.20104 137.456H-3.58636V-41.563H238.927V137.439H236.542V137.456Z" stroke="#433E3E" stroke-width="0.35"/>
<path d="M236.542 135.26L165.222 162.15L70.1183 108.369L-1.20104 135.26H-3.58636V-41.563H238.927V135.242H236.542V135.26Z" stroke="#433E3E" stroke-width="0.35"/>
<path d="M236.542 133.063L165.222 161.309L70.1183 104.834L-1.20104 133.063H-3.58636V-41.563H238.927V133.046H236.542V133.063Z" stroke="#433E3E" stroke-width="0.35"/>
<path d="M236.542 130.867L165.222 160.451L70.1183 101.282L-1.20104 130.867H-3.58636V-41.563H238.927V130.849H236.542V130.867Z" stroke="#433E3E" stroke-width="0.35"/>
<path d="M236.542 128.67L165.222 159.593L70.1183 97.7294L-1.20104 128.67H-3.58636V-41.563H238.927V128.653H236.542V128.67Z" stroke="#433E3E" stroke-width="0.35"/>
<path d="M236.542 126.473L165.222 158.752L70.1183 94.2115L-1.20104 126.473H-3.58636V-41.563H238.927V126.456H236.542V126.473Z" stroke="#433E3E" stroke-width="0.35"/>
<path d="M236.542 124.277L165.222 157.894L70.1183 90.6593L-1.20104 124.277H-3.58636V-41.563H238.927V124.26H236.542V124.277Z" stroke="#433E3E" stroke-width="0.35"/>
<path d="M236.542 122.08L165.222 157.036L70.1183 87.107L-1.20104 122.08H-3.58636V-41.563H238.927V122.063H236.542V122.08Z" stroke="#433E3E" stroke-width="0.35"/>
<path d="M236.542 119.884L165.222 156.196L70.1183 83.5719L-1.20104 119.884H-3.58636V-41.563H238.927V119.867H236.542V119.884Z" stroke="#433E3E" stroke-width="0.35"/>
<path d="M236.542 117.687L165.222 155.337L70.1183 80.0369L-1.20104 117.687H-3.58636V-41.563H238.927V117.67H236.542V117.687Z" stroke="#433E3E" stroke-width="0.35"/>
<path d="M236.542 115.491L165.222 154.479L70.1183 76.4846L-1.20104 115.491H-3.58636V-41.563H238.927V115.473H236.542V115.491Z" stroke="#433E3E" stroke-width="0.35"/>
<path d="M236.542 113.294L165.222 153.639L70.1183 72.9495L-1.20104 113.294H-3.58636V-41.563H238.927V113.277H236.542V113.294Z" stroke="#433E3E" stroke-width="0.35"/>
<path d="M236.542 111.098L165.222 152.781L70.1183 69.4145L-1.20104 111.098H-3.58636V-41.563H238.927V111.08H236.542V111.098Z" stroke="#433E3E" stroke-width="0.35"/>
<path d="M236.542 108.901L165.222 151.94L70.1183 65.8794L-1.20104 108.901H-3.58636V-41.563H238.927V108.901H236.542Z" stroke="#433E3E" stroke-width="0.35"/>
<path d="M236.542 106.704L165.222 151.082L70.1183 62.3272L-1.20104 106.704H-3.58636V-41.563H238.927V106.704H236.542Z" stroke="#433E3E" stroke-width="0.35"/>
<path d="M236.542 104.508L165.222 150.224L70.1183 58.7749L-1.20104 104.508H-3.58636V-41.563H238.927V104.508H236.542Z" stroke="#433E3E" stroke-width="0.35"/>
<path d="M236.542 102.311L165.222 149.383L70.1183 55.257L-1.20104 102.311H-3.58636V-41.563H238.927V102.311H236.542Z" stroke="#433E3E" stroke-width="0.35"/>
<path d="M236.542 100.115L165.222 148.525L70.1183 51.7048L-1.20104 100.115H-3.58636V-41.563H238.927V100.115H236.542Z" stroke="#433E3E" stroke-width="0.35"/>
<path d="M236.542 97.9182L165.222 147.667L70.1183 48.1525L-1.20104 97.9182H-3.58636V-41.563H238.927V97.9182H236.542Z" stroke="#433E3E" stroke-width="0.35"/>
<path d="M236.542 95.7216L165.222 146.826L70.1183 44.6174L-1.20104 95.7216H-3.58636V-41.563H238.927V95.7216H236.542Z" stroke="#433E3E" stroke-width="0.35"/>
<path d="M236.542 93.5251L165.222 145.968L70.1183 41.0824L-1.20104 93.5251H-3.58636V-41.563H238.927V93.5251H236.542Z" stroke="#433E3E" stroke-width="0.35"/>
<path d="M236.542 91.3285L165.222 145.11L70.1183 37.5301L-1.20104 91.3285H-3.58636V-41.563H238.927V91.3285H236.542Z" stroke="#433E3E" stroke-width="0.35"/>
<path d="M236.542 89.132L165.222 144.269L70.1183 33.995L-1.20104 89.132H-3.58636V-41.563H238.927V89.132H236.542Z" stroke="#433E3E" stroke-width="0.35"/>
<path d="M236.542 86.9354L165.222 143.411L70.1183 30.46L-1.20104 86.9354H-3.58636V-41.563H238.927V86.9354H236.542Z" stroke="#433E3E" stroke-width="0.35"/>
<path d="M236.542 84.7389L165.222 142.57L70.1183 26.9077L-1.20104 84.7389H-3.58636V-41.563H238.927V84.7389H236.542Z" stroke="#433E3E" stroke-width="0.35"/>
<path d="M236.542 82.5423L165.222 141.712L70.1183 23.3726L-1.20104 82.5423H-3.58636V-41.563H238.927V82.5423H236.542Z" stroke="#433E3E" stroke-width="0.35"/>
<path d="M236.542 80.3458L165.222 140.854L70.1183 19.8204L-1.20104 80.3458H-3.58636V-41.563H238.927V80.3458H236.542Z" stroke="#433E3E" stroke-width="0.35"/>
<path d="M236.542 78.1492L165.222 140.013L70.1183 16.2853L-1.20104 78.1492H-3.58636V-41.563H238.927V78.1492H236.542Z" stroke="#433E3E" stroke-width="0.35"/>
<path d="M236.542 75.9526L165.222 139.155L70.1183 12.7502L-1.20104 75.9526H-3.58636V-41.563H238.927V75.9526H236.542Z" stroke="#433E3E" stroke-width="0.35"/>
<path d="M236.542 73.7561L165.222 138.297L70.1183 9.198L-1.20104 73.7561H-3.58636V-41.563H238.927V73.7561H236.542Z" stroke="#433E3E" stroke-width="0.35"/>
<path d="M236.542 71.5595L165.222 137.456L70.1183 5.66292L-1.20104 71.5595H-3.58636V-41.563H238.927V71.5595H236.542Z" stroke="#433E3E" stroke-width="0.35"/>
</g>
<path d="M236.559 -39.3663H-1.20123V180.272H236.559V-39.3663Z" stroke="#433E3E" stroke-width="0.92" stroke-miterlimit="10"/>
</g>
</g>
<mask id="mask4_548_3183" style="mask-type:luminance" maskUnits="userSpaceOnUse" x="0" y="0" width="75" height="103">
<path d="M0 102.929V0H28.0404V79.4192H74.1852V102.929H0Z" fill="white"/>
</mask>
<g mask="url(#mask4_548_3183)">
<path d="M-3.05176e-05 102.929V-6.10352e-05H28.0404V79.4191H74.1852V102.929H-3.05176e-05Z" fill="white"/>
<g opacity="0.58">
<path d="M-1.20141 -38.2682H238.927V182.468H-3.58673V-38.2682H-1.20141Z" stroke="#433E3E" stroke-width="0.35"/>
<path d="M-1.20144 -36.0718L70.1179 -37.4103L165.222 -34.7161L236.541 -36.0546H238.927V182.485H-3.58676V-36.0718H-1.20144Z" stroke="#433E3E" stroke-width="0.35"/>
<path d="M-1.20144 -33.8752L70.1179 -36.5695L165.222 -31.1982L236.541 -33.8924H238.927V182.451H-3.58676V-33.8752H-1.20144Z" stroke="#433E3E" stroke-width="0.35"/>
<path d="M-1.20144 -31.6787L70.1179 -35.7114L165.222 -27.646L236.541 -31.6787H238.927V182.468H-3.58676V-31.6787H-1.20144Z" stroke="#433E3E" stroke-width="0.35"/>
<path d="M-1.20144 -29.4821L70.1179 -34.8534L165.222 -24.0937L236.541 -29.465H238.927V182.485H-3.58676V-29.4821H-1.20144Z" stroke="#433E3E" stroke-width="0.35"/>
<path d="M-1.20144 -27.2856L70.1179 -34.0126L165.222 -20.5587L236.541 -27.2856H238.927V182.468H-3.58676V-27.2856H-1.20144Z" stroke="#433E3E" stroke-width="0.35"/>
<path d="M-1.20144 -25.0891L70.1179 -33.1545L165.222 -17.0236L236.541 -25.0891H238.927V182.468H-3.58676V-25.0891H-1.20144Z" stroke="#433E3E" stroke-width="0.35"/>
<path d="M-1.20144 -22.8925L70.1179 -32.3137L165.222 -13.4885L236.541 -22.9097H238.927V182.451H-3.58676V-22.8925H-1.20144Z" stroke="#433E3E" stroke-width="0.35"/>
<path d="M-1.20144 -20.696L70.1179 -31.4556L165.222 -9.93628L236.541 -20.696H238.927V182.468H-3.58676V-20.696H-1.20144Z" stroke="#433E3E" stroke-width="0.35"/>
<path d="M-1.20144 -18.4994L70.1179 -30.5976L165.222 -6.40119L236.541 -18.4994H238.927V182.468H-3.58676V-18.4994H-1.20144Z" stroke="#433E3E" stroke-width="0.35"/>
<path d="M-1.20144 -16.3029L70.1179 -29.7568L165.222 -2.84897L236.541 -16.3029H238.927V182.468H-3.58676V-16.3029H-1.20144Z" stroke="#433E3E" stroke-width="0.35"/>
<path d="M-1.20144 -14.1063L70.1179 -28.8987L165.222 0.686108L236.541 -14.1063H238.927V182.468H-3.58676V-14.1063H-1.20144Z" stroke="#433E3E" stroke-width="0.35"/>
<path d="M-1.20144 -11.9098L70.1179 -28.0407L165.222 4.22117L236.541 -11.9098H238.927V182.468H-3.58676V-11.9098H-1.20144Z" stroke="#433E3E" stroke-width="0.35"/>
<path d="M-1.20144 -9.71323L70.1179 -27.1999L165.222 7.7734L236.541 -9.71323H238.927V182.468H-3.58676V-9.71323H-1.20144Z" stroke="#433E3E" stroke-width="0.35"/>
<path d="M-1.20144 -7.51667L70.1179 -26.3418L165.222 11.3085L236.541 -7.51667H238.927V182.468H-3.58676V-7.51667H-1.20144Z" stroke="#433E3E" stroke-width="0.35"/>
<path d="M-1.20144 -5.32012L70.1179 -25.4838L165.222 14.8607L236.541 -5.30296H238.927V182.485H-3.58676V-5.32012H-1.20144Z" stroke="#433E3E" stroke-width="0.35"/>
<path d="M-1.20144 -3.12358L70.1179 -24.6429L165.222 18.3958L236.541 -3.12358H238.927V182.468H-3.58676V-3.12358H-1.20144Z" stroke="#433E3E" stroke-width="0.35"/>
<path d="M-1.20144 -0.927023L70.1179 -23.7849L165.222 21.9309L236.541 -0.927023H238.927V182.468H-3.58676V-0.927023H-1.20144Z" stroke="#433E3E" stroke-width="0.35"/>
<path d="M-1.20144 1.26951L70.1179 -22.9441L165.222 25.4659L236.541 1.26951H238.927V182.468H-3.58676V1.26951H-1.20144Z" stroke="#433E3E" stroke-width="0.35"/>
<path d="M-1.20144 3.46607L70.1179 -22.086L165.222 29.0182L236.541 3.46607H238.927V182.468H-3.58676V3.46607H-1.20144Z" stroke="#433E3E" stroke-width="0.35"/>
<path d="M-1.20144 5.66263L70.1179 -21.228L165.222 32.5533L236.541 5.66263H238.927V182.468H-3.58676V5.66263H-1.20144Z" stroke="#433E3E" stroke-width="0.35"/>
<path d="M-1.20144 7.85916L70.1179 -20.3871L165.222 36.0883L236.541 7.84201H238.927V182.451H-3.58676V7.85916H-1.20144Z" stroke="#433E3E" stroke-width="0.35"/>
<path d="M-1.20144 10.0557L70.1179 -19.5291L165.222 39.6405L236.541 10.0557H238.927V182.468H-3.58676V10.0557H-1.20144Z" stroke="#433E3E" stroke-width="0.35"/>
<path d="M-1.20144 12.2523L70.1179 -18.6711L165.222 43.1928L236.541 12.2694H238.927V182.485H-3.58676V12.2523H-1.20144Z" stroke="#433E3E" stroke-width="0.35"/>
<path d="M-1.20144 14.4488L70.1179 -17.8302L165.222 46.7107L236.541 14.4316H238.927V182.451H-3.58676V14.4488H-1.20144Z" stroke="#433E3E" stroke-width="0.35"/>
<path d="M-1.20144 16.6454L70.1179 -16.9722L165.222 50.2629L236.541 16.6454H238.927V182.468H-3.58676V16.6454H-1.20144Z" stroke="#433E3E" stroke-width="0.35"/>
<path d="M-1.20144 18.8419L70.1179 -16.1142L165.222 53.8152L236.541 18.8591H238.927V182.485H-3.58676V18.8419H-1.20144Z" stroke="#433E3E" stroke-width="0.35"/>
<path d="M-1.20144 21.0385L70.1179 -15.2733L165.222 57.3502L236.541 21.0385H238.927V182.468H-3.58676V21.0385H-1.20144Z" stroke="#433E3E" stroke-width="0.35"/>
<path d="M-1.20144 23.235L70.1179 -14.4153L165.222 60.8853L236.541 23.235H238.927V182.468H-3.58676V23.235H-1.20144Z" stroke="#433E3E" stroke-width="0.35"/>
<path d="M-1.20144 25.4315L70.1179 -13.5744L165.222 64.4204L236.541 25.4315H238.927V182.468H-3.58676V25.4315H-1.20144Z" stroke="#433E3E" stroke-width="0.35"/>
<path d="M-1.20144 27.6281L70.1179 -12.7164L165.222 67.9726L236.541 27.6281H238.927V182.468H-3.58676V27.6281H-1.20144Z" stroke="#433E3E" stroke-width="0.35"/>
<path d="M-1.20144 29.8246L70.1179 -11.8584L165.222 71.5077L236.541 29.8246H238.927V182.468H-3.58676V29.8246H-1.20144Z" stroke="#433E3E" stroke-width="0.35"/>
<path d="M-1.20144 32.0212L70.1179 -11.0175L165.222 75.0428L236.541 32.004H238.927V182.451H-3.58676V32.0212H-1.20144Z" stroke="#433E3E" stroke-width="0.35"/>
<path d="M-1.20144 34.2177L70.1179 -10.1595L165.222 78.595L236.541 34.2177H238.927V182.468H-3.58676V34.2177H-1.20144Z" stroke="#433E3E" stroke-width="0.35"/>
<path d="M-1.20144 36.4143L70.1179 -9.30148L165.222 82.1472L236.541 36.4315H238.927V182.485H-3.58676V36.4143H-1.20144Z" stroke="#433E3E" stroke-width="0.35"/>
<path d="M-1.20144 38.6112L70.1179 -8.46022L165.222 85.6656L236.541 38.5941H238.927V182.451H-3.58676V38.6112H-1.20144Z" stroke="#433E3E" stroke-width="0.35"/>
<path d="M-1.20144 40.8078L70.1179 -7.60219L165.222 89.2178L236.541 40.8078H238.927V182.468H-3.58676V40.8078H-1.20144Z" stroke="#433E3E" stroke-width="0.35"/>
<path d="M-1.20144 43.0043L70.1179 -6.76134L165.222 92.7529L236.541 43.0043H238.927V182.468H-3.58676V43.0043H-1.20144Z" stroke="#433E3E" stroke-width="0.35"/>
<path d="M-1.20144 45.2009L70.1179 -5.90331L165.222 96.3051L236.541 45.2009H238.927V182.468H-3.58676V45.2009H-1.20144Z" stroke="#433E3E" stroke-width="0.35"/>
<path d="M-1.20144 47.3975L70.1179 -5.04527L165.222 99.8402L236.541 47.3975H238.927V182.468H-3.58676V47.3975H-1.20144Z" stroke="#433E3E" stroke-width="0.35"/>
<path d="M-1.20144 49.594L70.1179 -4.20442L165.222 103.375L236.541 49.594H238.927V182.468H-3.58676V49.594H-1.20144Z" stroke="#433E3E" stroke-width="0.35"/>
<path d="M-1.20144 51.7905L70.1179 -3.34641L165.222 106.927L236.541 51.7905H238.927V182.468H-3.58676V51.7905H-1.20144Z" stroke="#433E3E" stroke-width="0.35"/>
<path d="M-1.20144 53.9871L70.1179 -2.48837L165.222 110.463L236.541 53.9871H238.927V182.468H-3.58676V53.9871H-1.20144Z" stroke="#433E3E" stroke-width="0.35"/>
<path d="M-1.20144 56.1836L70.1179 -1.64752L165.222 113.998L236.541 56.1665H238.927V182.468H-3.58676V56.1836H-1.20144Z" stroke="#433E3E" stroke-width="0.35"/>
<path d="M-1.20144 58.3802L70.1179 -0.78949L165.222 117.55L236.541 58.3802H238.927V182.485H-3.58676V58.3802H-1.20144Z" stroke="#433E3E" stroke-width="0.35"/>
<path d="M-1.20144 60.5767L70.1179 0.0685425L165.222 121.102L236.541 60.5939H238.927V182.503H-3.58676V60.5767H-1.20144Z" stroke="#433E3E" stroke-width="0.35"/>
<path d="M-1.20144 62.7733L70.1179 0.909393L165.222 124.62L236.541 62.7561H238.927V182.468H-3.58676V62.7733H-1.20144Z" stroke="#433E3E" stroke-width="0.35"/>
<path d="M-1.20144 64.9698L70.1179 1.76743L165.222 128.172L236.541 64.9698H238.927V182.485H-3.58676V64.9698H-1.20144Z" stroke="#433E3E" stroke-width="0.35"/>
<path d="M-1.20144 67.1664L70.1179 2.60828L165.222 131.707L236.541 67.1664H238.927V182.485H-3.58676V67.1664H-1.20144Z" stroke="#433E3E" stroke-width="0.35"/>
<path d="M-1.20144 69.3629L70.1179 3.46631L165.222 135.242L236.541 69.3458H238.927V182.468H-3.58676V69.3629H-1.20144Z" stroke="#433E3E" stroke-width="0.35"/>
</g>
<g opacity="0.58">
<mask id="mask5_548_3183" style="mask-type:luminance" maskUnits="userSpaceOnUse" x="-2" y="-40" width="239" height="221">
<path d="M236.558 -39.3663H-1.2016V180.272H236.558V-39.3663Z" fill="white"/>
</mask>
<g mask="url(#mask5_548_3183)">
<path d="M236.541 179.174H-3.58664V-41.563H238.927V179.174H236.541Z" stroke="#433E3E" stroke-width="0.35"/>
<path d="M236.541 176.977L165.222 178.316L70.118 175.621L-1.20132 176.96H-3.58664V-41.563H238.927V176.977H236.541Z" stroke="#433E3E" stroke-width="0.35"/>
<path d="M236.541 174.78L165.222 177.475L70.118 172.103L-1.20132 174.798H-3.58664V-41.563H238.927V174.78H236.541Z" stroke="#433E3E" stroke-width="0.35"/>
<path d="M236.541 172.584L165.222 176.617L70.118 168.551L-1.20132 172.584H-3.58664V-41.563H238.927V172.584H236.541Z" stroke="#433E3E" stroke-width="0.35"/>
<path d="M236.541 170.387L165.222 175.759L70.118 164.999L-1.20132 170.387H-3.58664V-41.563H238.927V170.387H236.541Z" stroke="#433E3E" stroke-width="0.35"/>
<path d="M236.541 168.191L165.222 174.918L70.118 161.464L-1.20132 168.191H-3.58664V-41.563H238.927V168.191H236.541Z" stroke="#433E3E" stroke-width="0.35"/>
<path d="M236.541 165.994L165.222 174.06L70.118 157.929L-1.20132 165.994H-3.58664V-41.563H238.927V165.994H236.541Z" stroke="#433E3E" stroke-width="0.35"/>
<path d="M236.541 163.798L165.222 173.219L70.118 154.394L-1.20132 163.798H-3.58664V-41.563H238.927V163.798H236.541Z" stroke="#433E3E" stroke-width="0.35"/>
<path d="M236.541 161.601L165.222 172.361L70.118 150.841L-1.20132 161.601H-3.58664V-41.563H238.927V161.601H236.541Z" stroke="#433E3E" stroke-width="0.35"/>
<path d="M236.541 159.405L165.222 171.503L70.118 147.289L-1.20132 159.405H-3.58664V-41.563H238.927V159.405H236.541Z" stroke="#433E3E" stroke-width="0.35"/>
<path d="M236.541 157.208L165.222 170.662L70.118 143.771L-1.20132 157.208H-3.58664V-41.563H238.927V157.208H236.541Z" stroke="#433E3E" stroke-width="0.35"/>
<path d="M236.541 155.011L165.222 169.804L70.118 140.219L-1.20132 155.011H-3.58664V-41.563H238.927V155.011H236.541Z" stroke="#433E3E" stroke-width="0.35"/>
<path d="M236.541 152.815L165.222 168.946L70.118 136.667L-1.20132 152.815H-3.58664V-41.563H238.927V152.815H236.541Z" stroke="#433E3E" stroke-width="0.35"/>
<path d="M236.541 150.618L165.222 168.105L70.118 133.149L-1.20132 150.618H-3.58664V-41.563H238.927V150.618H236.541Z" stroke="#433E3E" stroke-width="0.35"/>
<path d="M236.541 148.422L165.222 167.247L70.118 129.597L-1.20132 148.422H-3.58664V-41.563H238.927V148.422H236.541Z" stroke="#433E3E" stroke-width="0.35"/>
<path d="M236.541 146.225L165.222 166.389L70.118 126.044L-1.20132 146.225H-3.58664V-41.563H238.927V146.225H236.541Z" stroke="#433E3E" stroke-width="0.35"/>
<path d="M236.541 144.029L165.222 165.548L70.118 122.509L-1.20132 144.029H-3.58664V-41.563H238.927V144.029H236.541Z" stroke="#433E3E" stroke-width="0.35"/>
<path d="M236.541 141.832L165.222 164.69L70.118 118.974L-1.20132 141.832H-3.58664V-41.563H238.927V141.832H236.541Z" stroke="#433E3E" stroke-width="0.35"/>
<path d="M236.541 139.653L165.222 163.866L70.118 115.456L-1.20132 139.653H-3.58664V-41.563H238.927V139.636H236.541V139.653Z" stroke="#433E3E" stroke-width="0.35"/>
<path d="M236.541 137.456L165.222 163.008L70.118 111.904L-1.20132 137.456H-3.58664V-41.563H238.927V137.439H236.541V137.456Z" stroke="#433E3E" stroke-width="0.35"/>
<path d="M236.541 135.26L165.222 162.15L70.118 108.369L-1.20132 135.26H-3.58664V-41.563H238.927V135.242H236.541V135.26Z" stroke="#433E3E" stroke-width="0.35"/>
<path d="M236.541 133.063L165.222 161.309L70.118 104.834L-1.20132 133.063H-3.58664V-41.563H238.927V133.046H236.541V133.063Z" stroke="#433E3E" stroke-width="0.35"/>
<path d="M236.541 130.867L165.222 160.451L70.118 101.282L-1.20132 130.867H-3.58664V-41.563H238.927V130.849H236.541V130.867Z" stroke="#433E3E" stroke-width="0.35"/>
<path d="M236.541 128.67L165.222 159.593L70.118 97.7294L-1.20132 128.67H-3.58664V-41.563H238.927V128.653H236.541V128.67Z" stroke="#433E3E" stroke-width="0.35"/>
<path d="M236.541 126.473L165.222 158.752L70.118 94.2115L-1.20132 126.473H-3.58664V-41.563H238.927V126.456H236.541V126.473Z" stroke="#433E3E" stroke-width="0.35"/>
<path d="M236.541 124.277L165.222 157.894L70.118 90.6593L-1.20132 124.277H-3.58664V-41.563H238.927V124.26H236.541V124.277Z" stroke="#433E3E" stroke-width="0.35"/>
<path d="M236.541 122.08L165.222 157.036L70.118 87.107L-1.20132 122.08H-3.58664V-41.563H238.927V122.063H236.541V122.08Z" stroke="#433E3E" stroke-width="0.35"/>
<path d="M236.541 119.884L165.222 156.196L70.118 83.5719L-1.20132 119.884H-3.58664V-41.563H238.927V119.867H236.541V119.884Z" stroke="#433E3E" stroke-width="0.35"/>
<path d="M236.541 117.687L165.222 155.337L70.118 80.0369L-1.20132 117.687H-3.58664V-41.563H238.927V117.67H236.541V117.687Z" stroke="#433E3E" stroke-width="0.35"/>
<path d="M236.541 115.491L165.222 154.479L70.118 76.4846L-1.20132 115.491H-3.58664V-41.563H238.927V115.473H236.541V115.491Z" stroke="#433E3E" stroke-width="0.35"/>
<path d="M236.541 113.294L165.222 153.639L70.118 72.9495L-1.20132 113.294H-3.58664V-41.563H238.927V113.277H236.541V113.294Z" stroke="#433E3E" stroke-width="0.35"/>
<path d="M236.541 111.098L165.222 152.781L70.118 69.4145L-1.20132 111.098H-3.58664V-41.563H238.927V111.08H236.541V111.098Z" stroke="#433E3E" stroke-width="0.35"/>
<path d="M236.541 108.901L165.222 151.94L70.118 65.8794L-1.20132 108.901H-3.58664V-41.563H238.927V108.901H236.541Z" stroke="#433E3E" stroke-width="0.35"/>
<path d="M236.541 106.704L165.222 151.082L70.118 62.3272L-1.20132 106.704H-3.58664V-41.563H238.927V106.704H236.541Z" stroke="#433E3E" stroke-width="0.35"/>
<path d="M236.541 104.508L165.222 150.224L70.118 58.7749L-1.20132 104.508H-3.58664V-41.563H238.927V104.508H236.541Z" stroke="#433E3E" stroke-width="0.35"/>
<path d="M236.541 102.311L165.222 149.383L70.118 55.257L-1.20132 102.311H-3.58664V-41.563H238.927V102.311H236.541Z" stroke="#433E3E" stroke-width="0.35"/>
<path d="M236.541 100.115L165.222 148.525L70.118 51.7048L-1.20132 100.115H-3.58664V-41.563H238.927V100.115H236.541Z" stroke="#433E3E" stroke-width="0.35"/>
<path d="M236.541 97.9182L165.222 147.667L70.118 48.1525L-1.20132 97.9182H-3.58664V-41.563H238.927V97.9182H236.541Z" stroke="#433E3E" stroke-width="0.35"/>
<path d="M236.541 95.7216L165.222 146.826L70.118 44.6174L-1.20132 95.7216H-3.58664V-41.563H238.927V95.7216H236.541Z" stroke="#433E3E" stroke-width="0.35"/>
<path d="M236.541 93.5251L165.222 145.968L70.118 41.0824L-1.20132 93.5251H-3.58664V-41.563H238.927V93.5251H236.541Z" stroke="#433E3E" stroke-width="0.35"/>
<path d="M236.541 91.3285L165.222 145.11L70.118 37.5301L-1.20132 91.3285H-3.58664V-41.563H238.927V91.3285H236.541Z" stroke="#433E3E" stroke-width="0.35"/>
<path d="M236.541 89.132L165.222 144.269L70.118 33.995L-1.20132 89.132H-3.58664V-41.563H238.927V89.132H236.541Z" stroke="#433E3E" stroke-width="0.35"/>
<path d="M236.541 86.9354L165.222 143.411L70.118 30.46L-1.20132 86.9354H-3.58664V-41.563H238.927V86.9354H236.541Z" stroke="#433E3E" stroke-width="0.35"/>
<path d="M236.541 84.7389L165.222 142.57L70.118 26.9077L-1.20132 84.7389H-3.58664V-41.563H238.927V84.7389H236.541Z" stroke="#433E3E" stroke-width="0.35"/>
<path d="M236.541 82.5423L165.222 141.712L70.118 23.3726L-1.20132 82.5423H-3.58664V-41.563H238.927V82.5423H236.541Z" stroke="#433E3E" stroke-width="0.35"/>
<path d="M236.541 80.3458L165.222 140.854L70.118 19.8204L-1.20132 80.3458H-3.58664V-41.563H238.927V80.3458H236.541Z" stroke="#433E3E" stroke-width="0.35"/>
<path d="M236.541 78.1492L165.222 140.013L70.118 16.2853L-1.20132 78.1492H-3.58664V-41.563H238.927V78.1492H236.541Z" stroke="#433E3E" stroke-width="0.35"/>
<path d="M236.541 75.9526L165.222 139.155L70.118 12.7502L-1.20132 75.9526H-3.58664V-41.563H238.927V75.9526H236.541Z" stroke="#433E3E" stroke-width="0.35"/>
<path d="M236.541 73.7561L165.222 138.297L70.118 9.198L-1.20132 73.7561H-3.58664V-41.563H238.927V73.7561H236.541Z" stroke="#433E3E" stroke-width="0.35"/>
<path d="M236.541 71.5595L165.222 137.456L70.118 5.66292L-1.20132 71.5595H-3.58664V-41.563H238.927V71.5595H236.541Z" stroke="#433E3E" stroke-width="0.35"/>
</g>
<path d="M236.558 -39.3663H-1.2016V180.272H236.558V-39.3663Z" stroke="#433E3E" stroke-width="0.92" stroke-miterlimit="10"/>
</g>
</g>
</svg>