<svg width="200" height="36" viewBox="0 0 200 36" fill="none" xmlns="http://www.w3.org/2000/svg">
<path d="M33.6836 35.1098C24.9246 34.7222 16.7995 31.3295 10.6915 25.4807C4.05487 19.129 0.282301 10.2493 0 0.366211H12.0389C12.2955 6.99772 14.6925 12.6566 19.0117 16.7884C22.8792 20.4891 28.053 22.6937 33.6836 23.0606V35.1098Z" fill="#433E3E"/>
<path d="M37.2433 35.1741C37.5179 26.0404 40.9748 17.5662 47.0468 11.1965C53.4987 4.42897 62.5221 0.587113 72.5591 0.302246V12.6106C65.8275 12.8698 60.084 15.3104 55.8905 19.7066C52.0076 23.7794 49.7621 29.233 49.4977 35.169L37.2459 35.1741H37.2433Z" fill="#433E3E"/>
<path d="M76.1187 35.2639C76.3933 26.0814 79.8502 17.5611 85.9248 11.158C92.3766 4.35966 101.395 0.49727 111.432 0.212402V12.59C104.698 12.8492 98.9542 15.3027 94.7608 19.722C90.8779 23.8128 88.6323 29.2945 88.3705 35.2588L76.1187 35.2639Z" fill="#433E3E"/>
<path d="M116.986 15.7518V0.212402H121.218V12.2051H128.183V15.7544H116.986V15.7518Z" fill="#433E3E"/>
<path d="M130.983 15.7518V0.212402H135.214V15.7518H130.983Z" fill="#433E3E"/>
<path d="M138.961 15.7518V0.212402H143.193L147.756 8.96373L152.319 0.212402H156.485V15.7518H152.584V6.42816H152.517L148.901 13.1521H146.519L142.903 6.42816H142.86V15.7518H138.959H138.961Z" fill="#433E3E"/>
<path d="M158.314 15.7518L165.5 0.212402H169.18L176.366 15.7518H172.024L170.194 11.4967L171.847 13.0622H162.744L164.397 11.4967L162.59 15.7518H158.314ZM167.243 4.40072L164.664 10.5728L164.091 9.66948H170.528L169.956 10.5728L167.399 4.40072H167.245H167.243Z" fill="#433E3E"/>
<path d="M120.463 25.5963C119.791 25.5963 119.208 25.4526 118.713 25.1626C118.217 24.8726 117.835 24.4594 117.566 23.9204C117.296 23.3815 117.163 22.7373 117.163 21.9854C117.163 21.2334 117.296 20.5918 117.566 20.0555C117.835 19.5191 118.215 19.1085 118.708 18.8185C119.2 18.5285 119.785 18.3848 120.463 18.3848C120.948 18.3848 121.395 18.4592 121.8 18.6029C122.206 18.7492 122.555 18.9673 122.847 19.2599L122.498 19.9682C122.193 19.6962 121.877 19.5011 121.556 19.3857C121.233 19.2702 120.874 19.2111 120.473 19.2111C119.742 19.2111 119.164 19.4447 118.743 19.9143C118.323 20.384 118.11 21.0718 118.11 21.9828C118.11 22.8939 118.32 23.5765 118.738 24.0513C119.157 24.5261 119.737 24.7648 120.473 24.7648C120.871 24.7648 121.233 24.7057 121.556 24.5903C121.88 24.4748 122.193 24.2797 122.498 24.0077L122.847 24.716C122.555 25.0086 122.206 25.2267 121.8 25.373C121.395 25.5193 120.948 25.5911 120.463 25.5911V25.5963Z" fill="#433E3E"/>
<path d="M124.572 25.5065V18.4746H129.189V19.2727H125.478V21.5466H128.978V22.3447H125.478V24.7083H129.189V25.5065H124.572Z" fill="#433E3E"/>
<path d="M131.062 25.5065V18.4746H131.891L136.159 24.1386V18.4746H137.037V25.5065H136.19L131.942 19.8707V25.5065H131.065H131.062Z" fill="#433E3E"/>
<path d="M140.896 25.5065V19.283H138.374V18.4746H144.338V19.283H141.815V25.5065H140.899H140.896Z" fill="#433E3E"/>
<path d="M145.672 25.5065V18.4746H148.596C149.353 18.4746 149.938 18.6466 150.351 18.9879C150.764 19.3292 150.969 19.8297 150.969 20.4892C150.969 20.8536 150.9 21.1719 150.759 21.4413C150.62 21.7108 150.425 21.9264 150.176 22.0906C149.928 22.2549 149.632 22.3627 149.294 22.414L149.304 22.4345L149.383 22.4551C149.53 22.4961 149.661 22.568 149.776 22.6732C149.892 22.7784 150.007 22.9452 150.12 23.1711L151.367 25.5039H150.361L149.204 23.3097C149.104 23.1249 148.999 22.9786 148.886 22.8759C148.773 22.7733 148.637 22.7014 148.483 22.6604C148.326 22.6193 148.139 22.6013 147.918 22.6013H146.581V25.5039H145.672V25.5065ZM146.581 21.8468H148.547C149.078 21.8468 149.463 21.7365 149.704 21.5183C149.943 21.3002 150.064 20.9666 150.064 20.52C150.064 20.0735 149.938 19.7604 149.684 19.5576C149.432 19.3549 149.034 19.2522 148.498 19.2522H146.584V21.8443L146.581 21.8468Z" fill="#433E3E"/>
<path d="M155.884 25.5963C155.379 25.5963 154.924 25.5142 154.519 25.3473C154.113 25.1805 153.767 24.9418 153.482 24.6288C153.197 24.3157 152.976 23.9384 152.825 23.497C152.671 23.0556 152.597 22.55 152.597 21.9854C152.597 21.4208 152.674 20.9255 152.825 20.4841C152.979 20.0426 153.195 19.6654 153.479 19.3523C153.762 19.0392 154.106 18.8005 154.511 18.6337C154.917 18.4669 155.376 18.3848 155.887 18.3848C156.397 18.3848 156.846 18.4669 157.252 18.6337C157.657 18.8005 158.004 19.0366 158.289 19.3472C158.574 19.6551 158.792 20.0324 158.943 20.4789C159.092 20.9229 159.166 21.4234 159.166 21.9751C159.166 22.5269 159.089 23.0453 158.938 23.4918C158.784 23.9358 158.569 24.3157 158.284 24.6288C158.001 24.9418 157.657 25.1805 157.252 25.3473C156.846 25.5142 156.392 25.5963 155.887 25.5963H155.884ZM155.884 24.7776C156.377 24.7776 156.798 24.6724 157.147 24.4594C157.496 24.2464 157.763 23.9333 157.95 23.5175C158.135 23.1018 158.23 22.5911 158.23 21.9854C158.23 21.3797 158.137 20.8613 157.955 20.4507C157.773 20.0375 157.503 19.727 157.152 19.5191C156.8 19.3087 156.377 19.206 155.887 19.206C155.396 19.206 154.973 19.3112 154.624 19.5191C154.275 19.7295 154.008 20.0401 153.821 20.4507C153.633 20.8639 153.541 21.3746 153.541 21.9854C153.541 22.5962 153.633 23.1018 153.821 23.5175C154.006 23.9333 154.275 24.2464 154.624 24.4594C154.973 24.6724 155.394 24.7776 155.887 24.7776H155.884Z" fill="#433E3E"/>
<path d="M163.873 25.5065V18.4746H166.368C167.12 18.4746 167.756 18.6106 168.277 18.8827C168.798 19.1547 169.198 19.5525 169.473 20.0735C169.748 20.5944 169.886 21.2309 169.886 21.9828C169.886 22.7348 169.748 23.3712 169.473 23.8974C169.198 24.4235 168.795 24.8212 168.272 25.0933C167.746 25.3653 167.112 25.5013 166.368 25.5013H163.873V25.5065ZM164.779 24.7083H166.314C167.166 24.7083 167.815 24.4851 168.264 24.0411C168.713 23.5971 168.937 22.9119 168.937 21.988C168.937 21.0641 168.713 20.3814 168.269 19.9374C167.825 19.496 167.174 19.2753 166.314 19.2753H164.779V24.7109V24.7083Z" fill="#433E3E"/>
<path d="M171.749 25.5065V18.4746H176.366V19.2727H172.655V21.5466H176.156V22.3447H172.655V24.7083H176.366V25.5065H171.749Z" fill="#433E3E"/>
<path d="M120.463 35.7847C119.791 35.7847 119.208 35.641 118.713 35.351C118.217 35.061 117.835 34.6478 117.566 34.1089C117.296 33.57 117.163 32.9258 117.163 32.1739C117.163 31.4219 117.296 30.7803 117.566 30.2439C117.835 29.7101 118.215 29.297 118.708 29.007C119.2 28.717 119.785 28.5732 120.463 28.5732C120.948 28.5732 121.395 28.6451 121.8 28.7914C122.206 28.9377 122.555 29.1558 122.847 29.4484L122.498 30.1567C122.193 29.8847 121.877 29.6896 121.556 29.5741C121.233 29.4586 120.874 29.3996 120.473 29.3996C119.742 29.3996 119.164 29.6332 118.743 30.1028C118.323 30.5724 118.11 31.2602 118.11 32.1713C118.11 33.0824 118.32 33.765 118.738 34.2398C119.157 34.7146 119.737 34.9532 120.473 34.9532C120.871 34.9532 121.233 34.8942 121.556 34.7787C121.88 34.6632 122.193 34.4682 122.498 34.1962L122.847 34.9045C122.555 35.197 122.206 35.4152 121.8 35.5615C121.395 35.7078 120.948 35.7796 120.463 35.7796V35.7847Z" fill="#433E3E"/>
<path d="M127.354 35.7847C126.848 35.7847 126.394 35.7026 125.988 35.5358C125.583 35.369 125.236 35.1303 124.952 34.8172C124.667 34.5041 124.446 34.1269 124.295 33.6855C124.141 33.244 124.066 32.7385 124.066 32.1739C124.066 31.6093 124.143 31.114 124.295 30.6725C124.449 30.2311 124.664 29.8539 124.949 29.5408C125.231 29.2277 125.575 28.989 125.981 28.8222C126.386 28.6554 126.846 28.5732 127.356 28.5732C127.867 28.5732 128.316 28.6554 128.722 28.8222C129.127 28.989 129.474 29.2251 129.758 29.5356C130.043 29.8436 130.261 30.2234 130.413 30.6674C130.564 31.1114 130.636 31.6118 130.636 32.1636C130.636 32.7154 130.559 33.2338 130.408 33.6803C130.254 34.1243 130.038 34.5041 129.753 34.8172C129.471 35.1303 129.127 35.369 128.722 35.5358C128.316 35.7026 127.862 35.7847 127.356 35.7847H127.354ZM127.354 34.9686C127.846 34.9686 128.267 34.8634 128.616 34.6504C128.965 34.4374 129.232 34.1243 129.42 33.7086C129.604 33.2928 129.699 32.7821 129.699 32.1764C129.699 31.5708 129.607 31.0524 129.425 30.6417C129.243 30.2286 128.973 29.918 128.621 29.7101C128.27 29.5023 127.846 29.397 127.356 29.397C126.866 29.397 126.443 29.5023 126.094 29.7101C125.745 29.9206 125.478 30.2311 125.29 30.6417C125.103 31.0549 125.011 31.5656 125.011 32.1764C125.011 32.7872 125.103 33.2928 125.29 33.7086C125.475 34.1243 125.745 34.4374 126.094 34.6504C126.443 34.8634 126.864 34.9686 127.356 34.9686H127.354Z" fill="#433E3E"/>
<path d="M132.499 35.6949V28.6631H133.328L137.596 34.3271V28.6631H138.474V35.6949H137.627L133.38 30.0592V35.6949H132.502H132.499Z" fill="#433E3E"/>
<path d="M142.611 35.6949L139.58 28.6631H140.558L143.032 34.5657H143.011L145.475 28.6631H146.453L143.412 35.6949H142.613H142.611Z" fill="#433E3E"/>
<path d="M147.556 35.6949V28.6631H152.173V29.4612H148.462V31.735H151.963V32.5332H148.462V34.8968H152.173V35.6949H147.556Z" fill="#433E3E"/>
<path d="M154.049 35.6949V28.6631H154.878L159.146 34.3271V28.6631H160.024V35.6949H159.177L154.929 30.0592V35.6949H154.052H154.049Z" fill="#433E3E"/>
<path d="M165.18 35.7847C164.507 35.7847 163.925 35.641 163.429 35.351C162.934 35.061 162.552 34.6478 162.282 34.1089C162.013 33.57 161.879 32.9258 161.879 32.1739C161.879 31.4219 162.013 30.7803 162.282 30.2439C162.552 29.7101 162.931 29.297 163.424 29.007C163.917 28.717 164.502 28.5732 165.18 28.5732C165.665 28.5732 166.111 28.6451 166.517 28.7914C166.922 28.9377 167.271 29.1558 167.564 29.4484L167.215 30.1567C166.909 29.8847 166.594 29.6896 166.273 29.5741C165.949 29.4586 165.59 29.3996 165.19 29.3996C164.458 29.3996 163.881 29.6332 163.46 30.1028C163.039 30.5724 162.826 31.2602 162.826 32.1713C162.826 33.0824 163.037 33.765 163.455 34.2398C163.873 34.7146 164.453 34.9532 165.19 34.9532C165.588 34.9532 165.949 34.8942 166.273 34.7787C166.596 34.6632 166.909 34.4682 167.215 34.1962L167.564 34.9045C167.271 35.197 166.922 35.4152 166.517 35.5615C166.111 35.7078 165.665 35.7796 165.18 35.7796V35.7847Z" fill="#433E3E"/>
<path d="M169.288 35.6949V28.6631H170.197V35.6949H169.288Z" fill="#433E3E"/>
<path d="M175.34 35.7847C174.834 35.7847 174.38 35.7026 173.974 35.5358C173.569 35.369 173.222 35.1303 172.938 34.8172C172.653 34.5041 172.432 34.1269 172.281 33.6855C172.127 33.244 172.052 32.7385 172.052 32.1739C172.052 31.6093 172.129 31.114 172.281 30.6725C172.435 30.2311 172.65 29.8539 172.935 29.5408C173.217 29.2277 173.561 28.989 173.967 28.8222C174.372 28.6554 174.832 28.5732 175.342 28.5732C175.853 28.5732 176.302 28.6554 176.708 28.8222C177.113 28.989 177.459 29.2251 177.744 29.5356C178.029 29.8436 178.247 30.2234 178.399 30.6674C178.55 31.1114 178.622 31.6118 178.622 32.1636C178.622 32.7154 178.545 33.2338 178.394 33.6803C178.24 34.1243 178.024 34.5041 177.739 34.8172C177.457 35.1303 177.113 35.369 176.708 35.5358C176.302 35.7026 175.848 35.7847 175.342 35.7847H175.34ZM175.34 34.9686C175.832 34.9686 176.253 34.8634 176.602 34.6504C176.951 34.4374 177.218 34.1243 177.406 33.7086C177.59 33.2928 177.685 32.7821 177.685 32.1764C177.685 31.5708 177.593 31.0524 177.411 30.6417C177.228 30.2286 176.959 29.918 176.607 29.7101C176.256 29.4997 175.832 29.397 175.342 29.397C174.852 29.397 174.429 29.5023 174.08 29.7101C173.731 29.9206 173.464 30.2311 173.276 30.6417C173.089 31.0549 172.997 31.5656 172.997 32.1764C172.997 32.7872 173.089 33.2928 173.276 33.7086C173.461 34.1243 173.731 34.4374 174.08 34.6504C174.429 34.8634 174.849 34.9686 175.342 34.9686H175.34Z" fill="#433E3E"/>
<path d="M180.485 35.6949V28.6631H181.314L185.582 34.3271V28.6631H186.46V35.6949H185.613L181.366 30.0592V35.6949H180.488H180.485Z" fill="#433E3E"/>
<path d="M188.613 35.6949V28.6631H193.23V29.4612H189.519V31.735H193.019V32.5332H189.519V34.8968H193.23V35.6949H188.613Z" fill="#433E3E"/>
<path d="M197.38 35.785C196.995 35.785 196.625 35.7568 196.274 35.7003C195.922 35.6438 195.601 35.5566 195.311 35.436C195.021 35.3153 194.767 35.1691 194.549 34.9971L194.888 34.24C195.121 34.4248 195.365 34.5711 195.624 34.6789C195.884 34.7841 196.161 34.8611 196.458 34.9022C196.754 34.9458 197.062 34.9663 197.38 34.9663C197.924 34.9663 198.345 34.8585 198.642 34.643C198.938 34.4274 199.086 34.1271 199.086 33.7396C199.086 33.5343 199.038 33.3649 198.943 33.2366C198.845 33.1083 198.696 33.0005 198.494 32.9184C198.291 32.8362 198.026 32.7644 197.701 32.7053L196.543 32.4769C195.886 32.3512 195.414 32.1279 195.132 31.8097C194.849 31.4914 194.708 31.0885 194.708 30.6035C194.708 30.1903 194.826 29.8336 195.062 29.5307C195.298 29.2279 195.624 28.9944 196.04 28.8276C196.456 28.6607 196.926 28.5786 197.452 28.5786C197.79 28.5786 198.106 28.6094 198.399 28.6736C198.691 28.7377 198.958 28.8301 199.202 28.9533C199.443 29.0765 199.661 29.2279 199.856 29.4076L199.507 30.1544C199.222 29.8746 198.909 29.6796 198.571 29.5667C198.232 29.4537 197.86 29.3973 197.454 29.3973C197.108 29.3973 196.797 29.4435 196.523 29.5359C196.248 29.6283 196.03 29.7643 195.871 29.9439C195.712 30.1236 195.632 30.3468 195.632 30.6112C195.632 30.896 195.722 31.1219 195.902 31.2887C196.081 31.4555 196.397 31.5813 196.849 31.6685L198.006 31.8867C198.691 32.0124 199.194 32.228 199.518 32.5308C199.841 32.8337 200 33.2237 200 33.7037C200 34.1091 199.892 34.4684 199.677 34.7815C199.461 35.0946 199.158 35.341 198.768 35.5181C198.381 35.6977 197.919 35.7876 197.387 35.7876L197.38 35.785Z" fill="#433E3E"/>
</svg>
